<svg xmlns="http://www.w3.org/2000/svg" xmlns:xlink="http://www.w3.org/1999/xlink" version="1.1" x="0px" y="0px" viewBox="0 0 100 125" enable-background="new 0 0 100 100" xml:space="preserve"><g><path d="M75.243,65.278C75.242,65.278,75.242,65.278,75.243,65.278c-5.894,0-11.571-2.468-15.988-6.947l-0.545-0.552l0.434-0.642   c5.682-8.422,6.367-17.869,1.67-22.975l-1.041-1.13l1.479-0.421c0.987-0.281,1.955-0.424,2.873-0.424   c6.01,0,8.583,5.996,9.228,7.834c0.36,1.023,1.735,4.365,4.344,4.365c0.294,0,0.604-0.045,0.916-0.131   c1.997-0.549,3.817-0.828,5.414-0.828c5.183,0,8.309,2.908,9.04,8.413c0.314,2.372-0.472,4.758-2.276,6.9   c-3.094,3.675-8.999,6.295-14.696,6.519C75.807,65.271,75.525,65.278,75.243,65.278z M61.148,57.536   c3.974,3.777,8.95,5.849,14.094,5.849l0,0c0.258,0,0.516-0.006,0.775-0.016c5.199-0.205,10.553-2.555,13.323-5.846   c1.452-1.726,2.091-3.604,1.847-5.434c-0.604-4.554-2.947-6.768-7.162-6.768c-1.426,0-3.079,0.255-4.913,0.761   c-0.476,0.131-0.952,0.198-1.417,0.198c-2.6,0-4.892-2.105-6.13-5.632c-0.693-1.974-2.807-6.567-7.441-6.567   c-0.293,0-0.594,0.018-0.9,0.055C67.368,39.958,66.601,49.058,61.148,57.536z"/></g><g><g><path d="M69.613,40.738c0,0,0.117,0.161,0.302,0.451c0.089,0.146,0.203,0.322,0.317,0.529c0.111,0.211,0.273,0.417,0.413,0.661    c0.151,0.238,0.298,0.498,0.487,0.757c0.188,0.257,0.343,0.554,0.56,0.816c0.215,0.262,0.396,0.564,0.642,0.812    c0.113,0.131,0.232,0.26,0.343,0.394c0.113,0.132,0.251,0.238,0.374,0.359c0.237,0.259,0.523,0.445,0.788,0.657    c0.127,0.114,0.281,0.179,0.419,0.269c0.131,0.08,0.26,0.158,0.386,0.235c0.165,0.072,0.327,0.142,0.485,0.21    c0.157,0.069,0.319,0.154,0.45,0.181c0.136,0.041,0.271,0.079,0.403,0.125c0.132,0.042,0.256,0.102,0.394,0.115    c0.269,0.043,0.52,0.098,0.744,0.148c0.226,0.035,0.427,0.046,0.596,0.069c0.335,0.039,0.538,0.075,0.538,0.075    s-0.179,0.081-0.508,0.195c-0.166,0.052-0.366,0.139-0.606,0.184c-0.24,0.04-0.516,0.083-0.824,0.113    c-0.305,0.033-0.659-0.011-1.032-0.037c-0.198-0.007-0.349-0.061-0.52-0.098c-0.168-0.043-0.34-0.087-0.515-0.131l-0.065-0.018    l-0.113-0.046L73.934,47.7l-0.276-0.127c-0.184-0.09-0.382-0.163-0.547-0.29c-0.348-0.229-0.702-0.466-0.995-0.768    c-0.146-0.148-0.309-0.285-0.441-0.444c-0.131-0.159-0.254-0.323-0.38-0.483c-0.129-0.159-0.247-0.321-0.34-0.494    c-0.097-0.17-0.193-0.338-0.289-0.503c-0.2-0.325-0.31-0.675-0.447-0.989c-0.141-0.313-0.215-0.636-0.295-0.923    c-0.077-0.287-0.155-0.553-0.183-0.788c-0.04-0.233-0.061-0.441-0.082-0.611C69.619,40.938,69.613,40.738,69.613,40.738z"/></g></g><g><path d="M31.252,72.522c-0.387,0-0.774-0.007-1.165-0.023c-7.785-0.307-15.848-3.876-20.064-8.886   c-2.427-2.884-3.487-6.087-3.065-9.263c0.984-7.406,5.183-11.321,12.143-11.321c2.176,0,4.663,0.382,7.394,1.133   c0.463,0.127,0.921,0.193,1.361,0.193c3.845,0,5.832-4.806,6.35-6.28c1.119-3.186,4.569-10.597,12.419-10.597   c2.678,0,5.617,0.899,8.737,2.671c6.014,3.417,8.309,10.358,6.14,18.567C58.453,60.257,46.814,72.522,31.252,72.522z    M19.101,44.922c-6.043,0-9.402,3.165-10.267,9.678c-0.35,2.633,0.562,5.328,2.637,7.793c3.895,4.627,11.406,7.928,18.69,8.214   c15.147,0.617,26.571-11.248,29.509-22.375c1.937-7.327-0.023-13.471-5.244-16.437c-2.831-1.609-5.456-2.425-7.802-2.425   c-6.639,0-9.648,6.524-10.634,9.331c-1.659,4.724-4.7,7.545-8.135,7.545c-0.609,0-1.236-0.087-1.864-0.261   C23.425,45.281,21.106,44.922,19.101,44.922z"/></g><g><g><path d="M39.036,38.944c0,0-0.01,0.278-0.064,0.749c-0.028,0.236-0.057,0.523-0.112,0.846c-0.039,0.325-0.146,0.69-0.253,1.089    c-0.111,0.397-0.214,0.843-0.407,1.276c-0.191,0.435-0.343,0.919-0.619,1.368c-0.132,0.229-0.266,0.462-0.402,0.697    c-0.128,0.239-0.291,0.464-0.469,0.684c-0.174,0.221-0.344,0.448-0.526,0.668c-0.183,0.219-0.407,0.41-0.611,0.614    c-0.404,0.417-0.895,0.745-1.375,1.062c-0.228,0.177-0.503,0.278-0.756,0.401l-0.382,0.177L32.87,48.66l-0.158,0.064l-0.09,0.023    c-0.241,0.062-0.479,0.124-0.71,0.182c-0.238,0.052-0.445,0.126-0.72,0.136c-0.516,0.036-1.005,0.096-1.428,0.051    c-0.424-0.041-0.806-0.101-1.138-0.155c-0.332-0.063-0.61-0.184-0.839-0.254c-0.456-0.159-0.702-0.27-0.702-0.27    s0.28-0.051,0.744-0.104c0.232-0.033,0.51-0.047,0.822-0.096c0.313-0.069,0.659-0.144,1.029-0.204    c0.191-0.02,0.362-0.103,0.546-0.161c0.182-0.062,0.369-0.115,0.557-0.172c0.181-0.035,0.406-0.154,0.623-0.249    c0.219-0.096,0.444-0.193,0.672-0.291c0.175-0.106,0.353-0.214,0.532-0.325c0.191-0.125,0.404-0.216,0.581-0.373    c0.365-0.292,0.761-0.549,1.087-0.908c0.171-0.167,0.361-0.313,0.519-0.496c0.154-0.188,0.317-0.365,0.476-0.547    c0.337-0.34,0.588-0.761,0.885-1.122c0.3-0.361,0.516-0.773,0.775-1.128c0.261-0.358,0.463-0.718,0.672-1.047    c0.193-0.337,0.417-0.622,0.573-0.914c0.158-0.288,0.315-0.53,0.44-0.731C38.871,39.167,39.036,38.944,39.036,38.944z"/></g></g><text x="0" y="115" fill="#000000" font-size="5px" font-weight="bold" font-family="'Helvetica Neue', Helvetica, Arial-Unicode, Arial, Sans-serif">Created by Bakunetsu Kaito</text><text x="0" y="120" fill="#000000" font-size="5px" font-weight="bold" font-family="'Helvetica Neue', Helvetica, Arial-Unicode, Arial, Sans-serif">from the Noun Project</text></svg>