<svg xmlns="http://www.w3.org/2000/svg" xmlns:xlink="http://www.w3.org/1999/xlink" version="1.1" x="0px" y="0px" viewBox="0 0 100 125" enable-background="new 0 0 100 100" xml:space="preserve"><path fill="none" stroke="#000000" stroke-miterlimit="10" d="M72.782,19.109c-5.263,0-9.888,6.744-12.564,13.787  c5.837,6.725,9.937,18.318,10.493,26.055c0.68,0.094,1.366,0.158,2.071,0.158c8.284,0,15-6.717,15-15  C87.782,35.826,81.066,19.109,72.782,19.109z"/><path fill="none" stroke="#000000" stroke-miterlimit="10" d="M39.782,32.896c-2.677-7.043-7.303-13.787-12.564-13.787  c-8.284,0-15,16.716-15,25s6.716,15,15,15c0.704,0,1.392-0.064,2.07-0.158C29.846,51.215,33.944,39.622,39.782,32.896z"/><path fill="none" stroke="#000000" stroke-miterlimit="10" d="M70,60.891c0,11.045-8.954,20-20,20s-20-8.955-20-20  c0-11.046,8.954-33.125,20-33.125S70,49.845,70,60.891z"/></svg>