<svg xmlns="http://www.w3.org/2000/svg" xmlns:xlink="http://www.w3.org/1999/xlink" version="1.1" x="0px" y="0px" viewBox="0 0 96 120" enable-background="new 0 0 96 96" xml:space="preserve"><g display="none"><g display="inline" opacity="0.2"><g><path fill="#000000" stroke="#EC2227" stroke-width="0.5" stroke-miterlimit="10" d="M90.593,84.537     c0,3.331-2.727,6.058-6.057,6.058H11.651c-3.331,0-6.057-2.727-6.057-6.058V11.651c0-3.331,2.726-6.057,6.057-6.057h72.886     c3.33,0,6.057,2.726,6.057,6.057V84.537z"/><path fill="#000000" stroke="#EC2227" stroke-width="0.5" stroke-miterlimit="10" d="M20.738,94.594     c-3.073,0-5.589-2.564-5.589-5.703V7.295c0-3.136,2.516-5.701,5.589-5.701h54.541c3.074,0,5.588,2.565,5.588,5.701v81.596     c0,3.139-2.514,5.703-5.588,5.703H20.738z"/><path fill="#000000" stroke="#EC2227" stroke-width="0.5" stroke-miterlimit="10" d="M7.266,80.885     c-3.176,0-5.774-2.486-5.774-5.529V20.643c0-3.04,2.599-5.527,5.774-5.527h81.448c3.176,0,5.773,2.487,5.773,5.527v54.713     c0,3.043-2.598,5.529-5.773,5.529H7.266z"/></g><circle fill="#000000" stroke="#EC2227" stroke-width="0.5" stroke-miterlimit="10" cx="48" cy="48" r="19.363"/><circle fill="#000000" stroke="#EC2227" stroke-width="0.5" stroke-miterlimit="10" cx="48" cy="48" r="46.5"/><line fill="#000000" stroke="#EC2227" stroke-width="0.5" stroke-miterlimit="10" x1="0.008" y1="0.008" x2="95.992" y2="95.993"/><line fill="#000000" stroke="#EC2227" stroke-width="0.5" stroke-miterlimit="10" x1="95.992" y1="0.008" x2="0.008" y2="95.993"/></g></g><g><path d="M72.918,56.293c2.843-3.64,3.903-13.975,4.263-26.486c0.05-0.097,0.087-0.172,0.097-0.193l-0.09-0.042   c0.122-4.341,0.161-8.937,0.161-13.605c0-1.689-0.678-3.213-2.014-4.529C72.368,8.515,66.22,6.849,59.213,5.91   c-0.002,0-0.008-0.003-0.01-0.004l-0.001,0.002c-4.376-0.586-9.085-0.891-13.572-1.036c-0.412-0.11-0.699-0.086-0.755-0.079   l0.005,0.057c-4.902-0.141-9.485-0.104-13.017-0.054c-0.021-0.007-0.043-0.014-0.061-0.019l-0.006,0.02   c-0.563,0.008-1.109,0.016-1.614,0.024c-1.396,0.021-2.564,0.039-3.442,0.039c-1.778,0-3.274,0.684-4.448,2.031   c-4.235,4.864-2.88,17.13-2.636,19.064c0,0,0,0.001-0.001,0.002c-3.058,6.216,1.539,17.421,5.365,24.875l-8.857,19.842l7.944,3.178   L11.381,95.613l17.741-18.52v4.416h6.79l-0.923,1.578l1.512-1.578h30.346l-8.25,14.104L81.93,71.256l-9.546-6.196L72.918,56.293z    M71.333,80.149l-1.304,1.36l-3.715,3.878l2.269-3.878l0.877-1.5l0.382-0.652l1.525-2.608l2.131-3.643l-2.085-0.834l-1.494-0.598   l-4.533-1.813l4.656-10.431l1.369-3.067l-0.578,9.478l0.641,0.416l8.118,5.271L71.333,80.149z M74.283,12.507   c1.054,1.038,1.566,2.169,1.566,3.46c0,3.033,0,8.008-0.159,13.443c-0.686,1.223-2.876,4.65-6.168,5.168   c-2.228,0.35-4.602-0.71-7.063-3.118c0.284-0.774,0.438-1.602,0.438-2.488c0-0.296-0.016-0.583-0.043-0.865   c3.212-12.2,0.88-17.855-1.259-20.36C67.19,8.678,71.9,10.16,74.283,12.507z M58.71,7.324c0.372,0.155,6.525,2.995,3.284,17.938   c-0.346-0.617-0.789-1.176-1.332-1.673c-2.181-1.996-5.861-2.911-10.552-3.204c0.262-8.21-1.013-12.109-2.367-13.94   C51.425,6.602,55.185,6.871,58.71,7.324z M45.365,6.358c0.209,0.077,0.495,0.233,0.815,0.555c1.048,1.053,2.724,4.205,2.433,13.407   c-4.167-0.142-9.027,0.13-14.298,0.551c0.871-8.772-0.022-12.771-0.998-14.593C36.738,6.238,40.939,6.224,45.365,6.358z    M23.424,7.877c0.888-1.021,1.973-1.517,3.316-1.517c0.883,0,2.06-0.018,3.465-0.039c0.403-0.006,0.832-0.013,1.273-0.019   c0.539,0.483,2.503,3.086,1.315,14.691c-1.771,0.148-3.583,0.308-5.427,0.471l-0.211,0.019c-2.686,0.238-4.756,1.105-6.184,2.586   C20.64,20.187,20.296,11.469,23.424,7.877z M26.282,73.106l-8.112-3.244l6.025-13.498l-0.578,9.478l5.505,3.574l1.5,0.974   l1.754,1.139l-1.754,1.831l-1.5,1.566L19.099,85.388L26.282,73.106z M29.122,67.627l-3.955-2.567l0.762-12.495   c1.518,2.826,2.786,4.883,3.193,5.53V67.627z M30.622,80.009v-4.482l4.091-4.271l-4.091-2.655V57.659l-0.118-0.185   c-0.054-0.084-2.122-3.356-4.396-7.852l0.086-1.419l-0.376,0.843c-3.563-7.157-7.442-17.089-4.816-22.427   c1.068-2.171,3.125-3.362,6.287-3.643l0.21-0.019c14.801-1.312,27.583-2.444,32.15,1.737c1.176,1.076,1.747,2.476,1.747,4.278   c0,2.051-0.988,3.749-2.937,5.048c-2.209,1.472-5.402,2.275-8.716,2.612l0.059-0.956l-0.442,0.991   c-5.027,0.456-10.253-0.145-12.697-1.162l-0.577,1.385c1.858,0.774,5.111,1.322,8.712,1.417l-0.001,0.004   c0.027,0.006,1.545,0.36,3.212,1.384l-8.238,18.452l7.945,3.179L36.789,80.009H30.622z M50.084,55.173l1.263,0.82l4.637,3.01   L42.707,72.863l7.183-12.281l-8.113-3.245l6.026-13.498l-0.578,9.479L50.084,55.173z M48.776,52.536l0.716-11.741   c0.831,0.735,1.601,1.661,2.131,2.834c1.228,2.719,0.919,6.142-0.881,10.183L48.776,52.536z M48.627,38.313   c-0.04-0.023-0.079-0.048-0.119-0.07c0.051-0.003,0.103-0.004,0.153-0.008L48.627,38.313z M37.937,80.009l20.385-21.277   l-6.302-4.09c2.072-4.548,2.404-8.454,0.97-11.631c-0.82-1.816-2.098-3.128-3.386-4.063l0.049-0.803   c3.628-0.347,7.163-1.224,9.64-2.875c1.05-0.7,1.858-1.506,2.451-2.403c2.332,2.18,4.651,3.28,6.919,3.28   c0.368,0,0.735-0.029,1.101-0.086c2.604-0.413,4.562-2.217,5.828-3.813c-0.307,7.756-0.979,15.904-2.451,20.417l0.271-4.461   L63.38,70.674l6.522,2.609l-0.03,3.052l-2.149,3.674H37.937z"/></g></svg>