<svg xmlns="http://www.w3.org/2000/svg" xmlns:xlink="http://www.w3.org/1999/xlink" version="1.1" x="0px" y="0px" viewBox="0 0 56.7 70.875" enable-background="new 0 0 56.7 56.7" xml:space="preserve"><g><path fill="none" stroke="#000000" stroke-width="0.75" stroke-linecap="round" stroke-linejoin="round" stroke-miterlimit="10" d="   M17.4,41.4c5.3-6.3,5.3-15.5,0-21.8"/><circle fill="none" stroke="#000000" stroke-width="1.25" stroke-linecap="round" stroke-linejoin="round" stroke-miterlimit="10" cx="14.2" cy="26.9" r="1.4"/><g><path fill="none" stroke="#000000" stroke-width="0.75" stroke-linecap="round" stroke-linejoin="round" stroke-miterlimit="10" d="    M24.6,35.4c1.3,0,2.4-1.1,2.4-2.4c0-1.3-1.1-2.4-2.4-2.4"/><path fill="none" stroke="#000000" stroke-width="0.75" stroke-linecap="round" stroke-linejoin="round" stroke-miterlimit="10" d="    M24.6,30.7c1.3,0,2.4-1.1,2.4-2.4c0-1.3-1.1-2.4-2.4-2.4"/><path fill="none" stroke="#000000" stroke-width="0.75" stroke-linecap="round" stroke-linejoin="round" stroke-miterlimit="10" d="    M29.3,30.7c1.3,0,2.4-1.1,2.4-2.4c0-1.3-1.1-2.4-2.4-2.4"/><path fill="none" stroke="#000000" stroke-width="0.75" stroke-linecap="round" stroke-linejoin="round" stroke-miterlimit="10" d="    M24.6,26c1.3,0,2.4-1.1,2.4-2.4c0-1.3-1.1-2.4-2.4-2.4"/><path fill="none" stroke="#000000" stroke-width="0.75" stroke-linecap="round" stroke-linejoin="round" stroke-miterlimit="10" d="    M26.9,33.1c1.3,0,2.4-1.1,2.4-2.4c0-1.3-1.1-2.4-2.4-2.4"/><path fill="none" stroke="#000000" stroke-width="0.75" stroke-linecap="round" stroke-linejoin="round" stroke-miterlimit="10" d="    M26.9,28.3c1.3,0,2.4-1.1,2.4-2.4c0-1.3-1.1-2.4-2.4-2.4"/></g><path fill="none" stroke="#000000" stroke-width="1.25" stroke-linecap="round" stroke-linejoin="round" stroke-miterlimit="10" d="   M24.6,37.9c1.6,1.6,3.5,2.8,5.6,3.7c2,0.8,4.2,1.3,6.4,1.3c-0.8-0.8-1.3-1.7-1.7-2.6"/><path fill="none" stroke="#000000" stroke-width="1.25" stroke-linecap="round" stroke-linejoin="round" stroke-miterlimit="10" d="   M21.2,19c-1.3,0.1-2.5,0.3-3.8,0.6c-5.1,1.2-10,3.9-14.1,7.9l5.7,6H3.3c4,4,8.9,6.6,14.1,7.9c4.2,1,8.5,1.1,12.8,0.2   c2,0.8,4.2,1.3,6.4,1.3c-0.8-0.8-1.3-1.7-1.7-2.6c3.8-1.4,7.4-3.7,10.4-6.7l6.2,6c2.5-2.5,2.5-6.5,0-9l0,0c2.5-2.5,2.5-6.5,0-9v0   l-6.2,6c-2.7-2.7-5.7-4.7-9-6.2c-1.8-0.8-3.6-1.4-5.4-1.8C27.7,18.8,24.4,18.6,21.2,19z"/><path fill="none" stroke="#000000" stroke-width="1.25" stroke-linecap="round" stroke-linejoin="round" stroke-miterlimit="10" d="   M21.2,19c3.2-3.2,7.7-5.2,12.6-5.2c-1.6,1.6-2.5,3.6-2.8,5.7C27.7,18.8,24.4,18.6,21.2,19z"/></g></svg>