<?xml version="1.0" encoding="iso-8859-1"?>
<!-- Generator: Adobe Illustrator 19.0.0, SVG Export Plug-In . SVG Version: 6.00 Build 0)  -->
<svg version="1.1" id="Capa_1" xmlns="http://www.w3.org/2000/svg" xmlns:xlink="http://www.w3.org/1999/xlink" x="0px" y="0px"
	 viewBox="0 0 512 512" style="enable-background:new 0 0 512 512;" xml:space="preserve">
<g>
	<g>
		<path d="M194.854,191.769V95.265C194.854,42.735,152.118,0,99.589,0S4.323,42.735,4.323,95.265v96.504
			C1.575,196.658,0,202.29,0,208.287v65.503c0,5.523,4.477,10,10,10h179.177c5.522,0,10-4.478,10-10v-65.503
			C199.177,202.29,197.602,196.658,194.854,191.769z M24.323,95.265C24.323,53.764,58.087,20,99.589,20
			c41.501,0,75.265,33.764,75.265,75.265v80.562c-0.009-0.003-0.019-0.005-0.028-0.007c-0.74-0.216-1.49-0.41-2.251-0.576
			c-0.018-0.004-0.036-0.009-0.055-0.013c-0.756-0.164-1.521-0.304-2.295-0.416c-0.062-0.009-0.124-0.015-0.186-0.024
			c-0.652-0.091-1.311-0.161-1.974-0.214c-0.172-0.014-0.344-0.028-0.517-0.04c-0.728-0.047-1.46-0.079-2.199-0.079h-31.908
			c-1.2-1.131-2.349-2.858-2.979-5.685c3.634-2.554,7.141-5.436,10.395-8.496c6.183-5.814,11.435-12.287,14.786-18.473l0.365-0.673
			c4.583-8.431,7.623-15.478,8.097-35.803c0.093-3.989-2.194-7.652-5.819-9.319c-13.348-6.137-38.73-34.464-49.932-48.385
			c-0.32-0.398-0.633-0.788-0.929-1.162c-1.897-2.391-4.781-3.784-7.833-3.784c-0.001,0-0.001,0-0.001,0
			c-3.052,0-5.937,1.394-7.833,3.783C81.09,59.901,54.623,89.696,40.893,96.009c-3.625,1.667-5.912,5.33-5.819,9.319
			c0.474,20.323,3.513,27.37,8.095,35.801l0.366,0.675c3.481,6.427,9.011,13.168,15.511,19.154c0.063,0.058,0.124,0.118,0.187,0.176
			c0.281,0.257,0.569,0.508,0.853,0.762c0.322,0.288,0.641,0.58,0.967,0.864c0.056,0.049,0.114,0.096,0.171,0.145
			c0.559,0.484,1.122,0.964,1.692,1.436c0.056,0.047,0.114,0.091,0.17,0.137c1.829,1.506,3.71,2.944,5.626,4.291
			c-0.035,0.154-0.077,0.292-0.115,0.439c-0.055,0.219-0.111,0.436-0.172,0.639c-0.085,0.28-0.175,0.548-0.271,0.803
			c-0.009,0.024-0.018,0.048-0.027,0.072c-0.654,1.717-1.533,2.894-2.441,3.736H33.829c-0.74,0-1.471,0.032-2.2,0.079
			c-0.173,0.011-0.345,0.026-0.517,0.04c-0.663,0.053-1.322,0.123-1.974,0.214c-0.062,0.009-0.124,0.015-0.186,0.024
			c-0.774,0.112-1.539,0.252-2.295,0.416c-0.018,0.004-0.037,0.009-0.055,0.013c-0.76,0.166-1.51,0.359-2.251,0.576
			c-0.009,0.003-0.019,0.005-0.028,0.007V95.265z M84.326,155.07c-9.417-5.586-18.957-14.957-23.199-22.789l-0.38-0.701
			c-0.174-0.309-0.338-0.611-0.5-0.911c-2.425-4.501-4.247-8.486-4.939-19.862c12.121-7.77,26.339-22.278,36.868-33.996
			c2.757-3.068,5.264-5.947,7.411-8.461c10.344,12.115,28.982,32.65,44.28,42.458c-0.554,9.101-1.831,13.471-3.561,17.16
			c-0.577,1.229-1.204,2.383-1.871,3.611l-0.38,0.699c-4.243,7.834-13.783,17.206-23.198,22.791c-3.036,1.802-4.897,5.07-4.897,8.6
			c0,0.973,0.033,1.91,0.087,2.825c0.023,0.407,0.063,0.795,0.096,1.192c0.04,0.466,0.079,0.932,0.132,1.383
			c0.06,0.521,0.133,1.028,0.209,1.53c0.04,0.258,0.081,0.514,0.125,0.767c0.106,0.615,0.222,1.218,0.353,1.804
			c0.005,0.021,0.01,0.041,0.015,0.062c1.35,6.017,3.921,10.521,6.901,13.876c0.121,0.137,0.241,0.27,0.362,0.403
			c0.198,0.215,0.395,0.43,0.596,0.635c0.689,0.71,1.378,1.351,2.049,1.918c0.09,0.076,0.184,0.138,0.274,0.212
			c0.475,0.39,0.952,0.76,1.429,1.105c0.343,0.249,0.691,0.48,1.04,0.711c0.206,0.137,0.411,0.271,0.617,0.4
			c1.358,0.856,2.746,1.586,4.148,2.203c3.133,1.38,6.316,2.23,9.293,2.708c-0.072,0.128-0.152,0.249-0.226,0.375
			c-0.147,0.249-0.292,0.5-0.449,0.742c-0.109,0.168-0.229,0.328-0.344,0.493c-0.135,0.194-0.264,0.391-0.405,0.58
			c-0.158,0.211-0.327,0.413-0.493,0.618c-0.108,0.133-0.21,0.272-0.322,0.402c-0.208,0.244-0.427,0.477-0.647,0.71
			c-0.079,0.084-0.153,0.173-0.233,0.255c-0.262,0.27-0.535,0.528-0.811,0.783c-0.044,0.04-0.084,0.084-0.129,0.124
			c-0.294,0.266-0.597,0.52-0.906,0.768c-0.031,0.025-0.06,0.053-0.092,0.077c-0.341,0.27-0.69,0.529-1.049,0.777
			c-0.001,0.001-0.002,0.001-0.003,0.002c-1.434,0.992-3.003,1.803-4.673,2.398c-0.005,0.002-0.01,0.004-0.015,0.006
			c-0.414,0.147-0.835,0.281-1.26,0.401c-0.005,0.001-0.01,0.003-0.015,0.005c-0.852,0.24-1.727,0.423-2.621,0.548
			c-0.011,0.002-0.021,0.004-0.032,0.006c-0.317,0.044-0.639,0.071-0.961,0.1c-0.138,0.012-0.273,0.033-0.411,0.043
			c-0.461,0.032-0.926,0.048-1.395,0.048H78.582c-0.468,0-0.933-0.016-1.393-0.048c-0.108-0.007-0.212-0.024-0.319-0.033
			c-0.351-0.03-0.702-0.061-1.047-0.108c-0.171-0.024-0.338-0.06-0.507-0.088c-0.278-0.046-0.558-0.087-0.832-0.144
			c-0.138-0.029-0.271-0.068-0.408-0.1c-0.301-0.07-0.603-0.137-0.899-0.219c-0.178-0.05-0.351-0.112-0.526-0.167
			c-0.249-0.077-0.501-0.15-0.746-0.237c-0.186-0.066-0.365-0.144-0.548-0.215c-0.229-0.089-0.461-0.172-0.686-0.269
			c-0.18-0.078-0.354-0.167-0.531-0.25c-0.221-0.103-0.445-0.201-0.662-0.312c-0.177-0.091-0.348-0.193-0.522-0.289
			c-0.209-0.115-0.422-0.225-0.626-0.347c-0.184-0.11-0.359-0.231-0.539-0.346c-0.188-0.12-0.379-0.235-0.562-0.362
			c-0.179-0.123-0.349-0.258-0.523-0.386c-0.176-0.13-0.356-0.255-0.528-0.39c-0.183-0.144-0.356-0.3-0.534-0.45
			c-0.154-0.131-0.313-0.256-0.462-0.391c-0.18-0.162-0.35-0.335-0.525-0.504c-0.138-0.134-0.282-0.262-0.416-0.4
			c-0.176-0.181-0.342-0.372-0.512-0.559c-0.122-0.135-0.249-0.264-0.368-0.402c-0.172-0.201-0.333-0.412-0.497-0.619
			c-0.106-0.134-0.217-0.262-0.319-0.398c-0.164-0.219-0.316-0.446-0.471-0.672c-0.092-0.134-0.19-0.263-0.279-0.398
			c-0.155-0.238-0.298-0.484-0.443-0.728c-0.077-0.129-0.16-0.254-0.234-0.385c5.549-0.858,11.83-2.915,17.171-7.422
			c0.66-0.557,1.336-1.185,2.014-1.879c0.213-0.217,0.422-0.446,0.632-0.673c0.112-0.123,0.224-0.244,0.336-0.371
			c3.003-3.367,5.592-7.887,6.944-13.93c0-0.001,0.001-0.003,0.001-0.004c0.132-0.591,0.249-1.199,0.357-1.82
			c0.044-0.248,0.084-0.499,0.124-0.751c0.077-0.504,0.15-1.012,0.211-1.535c0.053-0.449,0.092-0.912,0.132-1.376
			c0.033-0.397,0.073-0.787,0.097-1.195c0.054-0.914,0.087-1.85,0.087-2.822C89.224,160.14,87.362,156.87,84.326,155.07z
			 M179.18,263.79h-0.003H20v-55.503c0-3.077,1.022-5.912,2.729-8.212c0.213-0.287,0.433-0.567,0.665-0.834
			c0.12-0.138,0.244-0.272,0.369-0.406c0.24-0.255,0.49-0.5,0.747-0.736c0.117-0.107,0.231-0.217,0.352-0.32
			c0.369-0.315,0.75-0.614,1.148-0.887c0.013-0.009,0.026-0.02,0.039-0.029c0.437-0.298,0.891-0.567,1.358-0.813
			c0.068-0.036,0.139-0.065,0.207-0.1c0.391-0.197,0.79-0.377,1.198-0.536c0.117-0.046,0.236-0.087,0.354-0.13
			c0.37-0.133,0.746-0.25,1.127-0.351c0.136-0.036,0.271-0.073,0.409-0.105c0.382-0.089,0.77-0.157,1.161-0.214
			c0.133-0.019,0.263-0.045,0.396-0.061c0.519-0.06,1.043-0.096,1.571-0.096h5.288c0.042,0.242,0.095,0.48,0.141,0.72
			c0.047,0.246,0.093,0.493,0.145,0.737c0.084,0.396,0.178,0.789,0.273,1.18c0.054,0.22,0.104,0.442,0.161,0.661
			c0.118,0.451,0.248,0.897,0.382,1.342c0.046,0.155,0.087,0.312,0.135,0.465c0.187,0.597,0.387,1.188,0.601,1.772
			c0.043,0.118,0.092,0.234,0.137,0.351c0.174,0.463,0.353,0.923,0.544,1.377c0.085,0.204,0.178,0.403,0.267,0.605
			c0.16,0.364,0.321,0.728,0.492,1.087c0.106,0.222,0.217,0.441,0.327,0.661c0.166,0.332,0.333,0.663,0.507,0.989
			c0.121,0.226,0.245,0.45,0.37,0.673c0.176,0.316,0.356,0.629,0.541,0.939c0.132,0.222,0.265,0.442,0.401,0.661
			c0.19,0.306,0.385,0.609,0.584,0.909c0.14,0.213,0.28,0.426,0.425,0.636c0.209,0.305,0.425,0.604,0.642,0.902
			c0.143,0.197,0.284,0.395,0.43,0.589c0.241,0.319,0.49,0.631,0.741,0.942c0.132,0.165,0.261,0.333,0.396,0.495
			c0.357,0.43,0.724,0.853,1.098,1.268c0.034,0.037,0.065,0.076,0.099,0.113c0.409,0.449,0.829,0.888,1.257,1.318
			c0.144,0.145,0.294,0.284,0.441,0.427c0.29,0.283,0.581,0.564,0.879,0.838c0.179,0.164,0.363,0.323,0.545,0.484
			c0.275,0.244,0.551,0.486,0.833,0.722c0.196,0.164,0.396,0.325,0.596,0.485c0.277,0.223,0.556,0.444,0.84,0.66
			c0.208,0.159,0.418,0.314,0.629,0.469c0.285,0.209,0.572,0.413,0.863,0.614c0.215,0.149,0.431,0.297,0.649,0.442
			c0.299,0.199,0.602,0.391,0.907,0.582c0.216,0.135,0.43,0.271,0.649,0.402c0.325,0.195,0.656,0.382,0.987,0.568
			c0.204,0.115,0.406,0.233,0.612,0.344c0.393,0.212,0.791,0.412,1.191,0.611c0.151,0.075,0.3,0.156,0.452,0.229
			c0.553,0.266,1.113,0.52,1.679,0.76c0.144,0.061,0.292,0.115,0.437,0.175c0.427,0.176,0.856,0.348,1.29,0.51
			c0.217,0.08,0.438,0.153,0.656,0.23c0.369,0.13,0.738,0.258,1.111,0.377c0.242,0.077,0.487,0.148,0.731,0.22
			c0.357,0.106,0.715,0.21,1.077,0.306c0.254,0.068,0.51,0.131,0.767,0.194c0.358,0.088,0.717,0.171,1.078,0.249
			c0.261,0.056,0.523,0.111,0.785,0.162c0.366,0.072,0.734,0.136,1.104,0.198c0.26,0.043,0.52,0.087,0.782,0.125
			c0.384,0.056,0.771,0.103,1.158,0.148c0.251,0.029,0.501,0.061,0.753,0.086c0.427,0.041,0.858,0.071,1.289,0.098
			c0.215,0.014,0.429,0.034,0.645,0.044c0.648,0.031,1.3,0.05,1.956,0.05h41.611c0.656,0,1.308-0.018,1.956-0.05
			c0.216-0.01,0.43-0.03,0.645-0.044c0.431-0.028,0.862-0.057,1.289-0.098c0.252-0.024,0.502-0.057,0.753-0.086
			c0.387-0.045,0.774-0.092,1.158-0.148c0.262-0.038,0.522-0.082,0.782-0.125c0.369-0.061,0.737-0.126,1.103-0.198
			c0.263-0.051,0.524-0.106,0.785-0.162c0.361-0.078,0.72-0.162,1.078-0.249c0.256-0.063,0.512-0.127,0.767-0.194
			c0.361-0.097,0.72-0.2,1.077-0.306c0.244-0.072,0.489-0.143,0.731-0.22c0.374-0.119,0.742-0.247,1.111-0.377
			c0.219-0.077,0.439-0.15,0.656-0.23c0.434-0.161,0.863-0.334,1.29-0.51c0.145-0.06,0.293-0.114,0.437-0.175
			c0.566-0.241,1.126-0.495,1.679-0.76c0.152-0.073,0.301-0.154,0.452-0.229c0.4-0.199,0.799-0.399,1.191-0.611
			c0.206-0.111,0.408-0.229,0.612-0.344c0.331-0.186,0.662-0.373,0.987-0.568c0.218-0.131,0.433-0.267,0.649-0.402
			c0.305-0.191,0.608-0.383,0.907-0.582c0.218-0.145,0.434-0.293,0.649-0.442c0.29-0.201,0.578-0.405,0.863-0.614
			c0.211-0.155,0.421-0.311,0.629-0.469c0.284-0.216,0.563-0.437,0.84-0.66c0.2-0.161,0.399-0.321,0.596-0.485
			c0.282-0.236,0.558-0.479,0.833-0.722c0.182-0.161,0.366-0.32,0.545-0.484c0.298-0.274,0.589-0.556,0.879-0.838
			c0.146-0.143,0.297-0.282,0.441-0.427c0.428-0.43,0.848-0.869,1.257-1.318c0.034-0.037,0.065-0.076,0.099-0.113
			c0.374-0.415,0.741-0.837,1.098-1.268c0.135-0.162,0.263-0.33,0.396-0.495c0.25-0.311,0.5-0.623,0.741-0.942
			c0.146-0.194,0.287-0.392,0.43-0.589c0.217-0.298,0.433-0.598,0.642-0.902c0.144-0.21,0.284-0.423,0.425-0.636
			c0.198-0.301,0.393-0.603,0.584-0.909c0.136-0.219,0.27-0.439,0.401-0.661c0.185-0.31,0.364-0.623,0.54-0.939
			c0.125-0.223,0.249-0.447,0.37-0.673c0.174-0.327,0.342-0.657,0.507-0.989c0.11-0.22,0.221-0.439,0.327-0.661
			c0.171-0.359,0.332-0.722,0.492-1.087c0.089-0.202,0.181-0.402,0.267-0.605c0.191-0.454,0.37-0.915,0.544-1.377
			c0.044-0.118,0.094-0.233,0.137-0.351c0.214-0.584,0.414-1.175,0.601-1.772c0.048-0.154,0.089-0.311,0.135-0.465
			c0.133-0.445,0.264-0.891,0.382-1.342c0.057-0.219,0.107-0.441,0.161-0.661c0.095-0.392,0.189-0.784,0.273-1.18
			c0.052-0.245,0.097-0.491,0.145-0.737c0.046-0.24,0.099-0.478,0.141-0.72h5.689c0.528,0,1.052,0.036,1.57,0.096
			c0.135,0.015,0.266,0.042,0.4,0.061c0.389,0.057,0.776,0.124,1.157,0.213c0.139,0.032,0.277,0.07,0.415,0.107
			c0.378,0.101,0.75,0.216,1.117,0.348c0.122,0.044,0.244,0.087,0.365,0.134c0.4,0.157,0.792,0.333,1.176,0.527
			c0.076,0.038,0.154,0.071,0.229,0.11c0.463,0.244,0.914,0.511,1.347,0.806c0.027,0.018,0.051,0.04,0.078,0.058
			c0.383,0.265,0.752,0.553,1.108,0.856c0.127,0.108,0.247,0.223,0.37,0.336c0.251,0.23,0.496,0.47,0.731,0.719
			c0.128,0.136,0.254,0.273,0.376,0.414c0.232,0.267,0.452,0.547,0.664,0.833c1.705,2.299,2.727,5.134,2.727,8.21V263.79z"/>
	</g>
</g>
<g>
	<g>
		<path d="M478.171,183.864h-33.45l-0.008-2.964c23.733-12.058,38.722-36.193,38.722-63.259V96.128
			c5.139-15.131,11.115-44.445-7.82-68.569h0.001C464.727,13.685,451.57,7.501,439.337,10.16C429.496,3.332,417.973,0,404.293,0
			c-42.567,0-68.004,32.706-68.004,64.326c0,24.163,3.822,41.026,5.1,45.987v7.329c0,27.065,14.988,51.201,38.722,63.259
			l-0.008,2.964h-33.45c-18.653,0-33.829,15.176-33.829,33.829v56.097c0,5.522,4.478,10,10,10H502c5.522,0,10-4.478,10-10v-56.097
			C512,199.04,496.824,183.864,478.171,183.864z M360.728,79.949c-0.39,0.3-0.773,0.603-1.149,0.911
			c-0.205,0.167-0.408,0.335-0.609,0.505c-0.379,0.32-0.748,0.643-1.112,0.969c-0.173,0.155-0.349,0.308-0.519,0.465
			c-0.062,0.057-0.129,0.113-0.191,0.171c-0.509-5.446-0.858-11.711-0.858-18.644C356.289,45.921,371.183,20,404.293,20
			c14.539,0,22.185,5.098,26.671,8.932c3.024,2.586,7.294,3.133,10.874,1.39c4.69-2.287,11.61,1.386,18.043,9.585
			c0.001,0,0.001,0,0.001,0c10.167,12.954,9.586,29.087,7.035,40.917c-0.108-0.112-0.226-0.229-0.336-0.342
			c-0.318-0.327-0.64-0.656-0.972-0.989c-0.193-0.193-0.389-0.388-0.587-0.583c-0.309-0.305-0.624-0.613-0.944-0.923
			c-0.212-0.205-0.423-0.409-0.64-0.616c-0.341-0.325-0.691-0.652-1.045-0.981c-0.204-0.189-0.403-0.377-0.611-0.568
			c-0.551-0.506-1.115-1.015-1.697-1.53c-0.012-0.011-0.024-0.021-0.036-0.032c-0.285-0.252-0.585-0.489-0.883-0.729
			c-0.147-0.119-0.287-0.245-0.437-0.361c-0.017-0.013-0.036-0.026-0.054-0.039c-1.893-1.455-4.017-2.703-6.274-3.888
			c-1.518-0.797-3.093-1.568-4.703-2.352c-2.629-1.281-6.957-3.389-9.335-5.163c-0.793-0.591-1.369-1.146-1.593-1.62
			c-1.26-3.283-4.152-5.663-7.616-6.268c-3.464-0.606-6.991,0.654-9.29,3.316c-0.49,0.568-0.986,1.116-1.489,1.645
			c-1.005,1.058-2.037,2.038-3.1,2.942c-1.063,0.904-2.156,1.733-3.284,2.487c-6.206,4.15-13.477,6.065-22.55,6.065
			c-1.006,0-1.988,0.035-2.956,0.09c-0.308,0.018-0.607,0.047-0.911,0.07c-0.659,0.05-1.313,0.107-1.954,0.181
			c-0.337,0.039-0.671,0.083-1.003,0.129c-0.608,0.083-1.208,0.177-1.8,0.281c-0.314,0.055-0.628,0.109-0.937,0.17
			c-0.646,0.127-1.279,0.27-1.905,0.421c-0.23,0.055-0.465,0.104-0.692,0.163c-0.847,0.218-1.677,0.455-2.489,0.715
			c-0.128,0.041-0.25,0.088-0.376,0.13c-0.68,0.224-1.348,0.46-2.003,0.711c-0.255,0.098-0.504,0.202-0.756,0.304
			c-0.521,0.21-1.035,0.427-1.54,0.653c-0.265,0.119-0.527,0.24-0.788,0.362c-0.493,0.232-0.976,0.472-1.454,0.719
			c-0.236,0.122-0.474,0.242-0.707,0.367c-0.554,0.299-1.096,0.607-1.63,0.923c-0.135,0.08-0.275,0.155-0.408,0.236
			c-0.664,0.402-1.31,0.817-1.941,1.243c-0.158,0.106-0.308,0.217-0.464,0.325c-0.468,0.324-0.929,0.652-1.379,0.987
			C361.138,79.631,360.934,79.79,360.728,79.949z M361.389,117.642v-6.721c0.032-0.074,0.065-0.148,0.1-0.227
			c0.025-0.055,0.048-0.109,0.074-0.167c0.065-0.144,0.136-0.298,0.21-0.456c0.022-0.047,0.042-0.091,0.065-0.139
			c0.199-0.42,0.428-0.883,0.687-1.382c0.035-0.066,0.073-0.137,0.108-0.204c0.096-0.182,0.194-0.366,0.298-0.556
			c0.051-0.093,0.105-0.189,0.158-0.284c0.096-0.173,0.195-0.348,0.298-0.527c0.06-0.104,0.121-0.21,0.184-0.316
			c0.106-0.18,0.216-0.364,0.328-0.549c0.065-0.107,0.129-0.213,0.196-0.322c0.123-0.198,0.251-0.401,0.382-0.603
			c0.063-0.098,0.124-0.195,0.188-0.293c0.18-0.276,0.368-0.555,0.562-0.837c0.019-0.027,0.036-0.053,0.054-0.08
			c0.213-0.308,0.436-0.619,0.666-0.933c0.069-0.094,0.142-0.188,0.213-0.282c0.164-0.219,0.33-0.438,0.502-0.659
			c0.093-0.119,0.189-0.238,0.285-0.357c0.159-0.198,0.32-0.397,0.486-0.595c0.106-0.127,0.213-0.253,0.322-0.379
			c0.165-0.193,0.334-0.385,0.506-0.577c0.113-0.126,0.226-0.253,0.342-0.379c0.183-0.199,0.371-0.396,0.561-0.594
			c0.111-0.115,0.22-0.231,0.334-0.346c0.23-0.232,0.467-0.461,0.707-0.69c0.081-0.077,0.159-0.156,0.241-0.232
			c0.322-0.301,0.654-0.598,0.994-0.89c0.094-0.081,0.193-0.159,0.288-0.239c0.252-0.211,0.506-0.421,0.767-0.627
			c0.135-0.106,0.274-0.209,0.411-0.313c0.231-0.175,0.464-0.349,0.703-0.52c0.153-0.109,0.308-0.216,0.464-0.323
			c0.235-0.161,0.474-0.319,0.716-0.474c0.162-0.104,0.325-0.208,0.491-0.309c0.251-0.154,0.508-0.303,0.767-0.451
			c0.162-0.093,0.323-0.187,0.488-0.276c0.295-0.16,0.597-0.313,0.901-0.464c0.137-0.068,0.27-0.139,0.409-0.205
			c0.443-0.211,0.895-0.412,1.358-0.601c0.093-0.038,0.19-0.07,0.283-0.107c0.376-0.148,0.756-0.292,1.144-0.424
			c0.173-0.059,0.351-0.112,0.527-0.168c0.318-0.101,0.639-0.2,0.966-0.291c0.199-0.055,0.403-0.105,0.605-0.157
			c0.316-0.079,0.635-0.154,0.958-0.222c0.212-0.045,0.426-0.088,0.642-0.128c0.331-0.062,0.668-0.116,1.007-0.166
			c0.213-0.031,0.425-0.064,0.641-0.091c0.374-0.046,0.755-0.08,1.138-0.111c0.189-0.015,0.375-0.036,0.566-0.048
			c0.576-0.035,1.161-0.057,1.758-0.057c0.002,0,0.005,0,0.007,0c14.858,0,27.213-4.016,37.467-12.224
			c0.954,0.699,1.94,1.356,2.945,1.977c3.013,1.864,6.182,3.408,9.086,4.822c0.747,0.364,1.519,0.74,2.279,1.118
			c0.014,0.007,0.029,0.014,0.043,0.021c0.008,0.004,0.016,0.008,0.025,0.012c2.31,1.151,4.496,2.318,5.518,3.222
			c0.667,0.589,1.307,1.17,1.922,1.742c0.188,0.175,0.358,0.342,0.541,0.515c0.417,0.394,0.836,0.788,1.229,1.172
			c0.214,0.209,0.409,0.41,0.616,0.616c0.337,0.336,0.682,0.675,1,1.003c0.242,0.248,0.462,0.485,0.693,0.728
			c0.26,0.273,0.529,0.551,0.776,0.817c0.257,0.277,0.493,0.542,0.736,0.811c0.197,0.218,0.404,0.441,0.591,0.653
			c0.278,0.314,0.534,0.614,0.792,0.915c0.13,0.151,0.269,0.309,0.394,0.456c0.297,0.352,0.573,0.689,0.844,1.021
			c0.068,0.083,0.143,0.172,0.209,0.255c0.32,0.397,0.62,0.779,0.902,1.144c0.006,0.008,0.013,0.017,0.02,0.025
			c2.335,3.031,3.368,4.932,3.448,5.082c0.037,0.073,0.089,0.135,0.128,0.208c0.2,0.37,0.416,0.728,0.657,1.065
			c0.104,0.145,0.22,0.277,0.331,0.416c0.205,0.257,0.416,0.507,0.644,0.741c0.056,0.057,0.101,0.125,0.158,0.181v8.833
			c0,21.129-12.716,39.773-32.395,47.498c-3.838,1.507-6.357,5.214-6.346,9.337l0.038,13.449c-0.084,0.113-0.165,0.23-0.244,0.347
			l-12.077,17.904l-12.077-17.904c-0.079-0.117-0.16-0.233-0.243-0.346l0.037-13.451c0.012-4.122-2.509-7.829-6.346-9.336
			C374.103,157.415,361.389,138.77,361.389,117.642z M492,263.79L492,263.79H332.823v-46.097c0-7.625,6.204-13.829,13.829-13.829
			h40.074l17.395,25.787c1.858,2.756,4.966,4.408,8.29,4.408c3.324,0,6.432-1.652,8.29-4.408l17.395-25.787h40.075
			c7.625,0,13.829,6.204,13.829,13.829V263.79z"/>
	</g>
</g>
<g>
	<g>
		<path d="M435.96,500.05c-0.13-0.64-0.32-1.27-0.57-1.88c-0.25-0.601-0.559-1.18-0.92-1.72c-0.37-0.551-0.78-1.061-1.24-1.521
			c-0.47-0.46-0.979-0.88-1.529-1.25c-0.54-0.36-1.12-0.66-1.721-0.91c-0.6-0.25-1.229-0.45-1.87-0.569
			c-1.29-0.261-2.619-0.261-3.909,0c-0.641,0.119-1.271,0.319-1.87,0.569c-0.601,0.25-1.181,0.55-1.73,0.91
			c-0.54,0.37-1.06,0.79-1.52,1.25c-0.46,0.46-0.88,0.97-1.24,1.521c-0.36,0.54-0.67,1.119-0.92,1.72
			c-0.25,0.61-0.44,1.24-0.57,1.88s-0.2,1.3-0.2,1.95c0,0.649,0.07,1.31,0.2,1.95s0.32,1.27,0.57,1.869
			c0.25,0.61,0.56,1.19,0.92,1.73c0.36,0.55,0.78,1.06,1.24,1.52c0.46,0.461,0.979,0.881,1.52,1.24c0.55,0.36,1.13,0.67,1.73,0.92
			c0.6,0.25,1.229,0.45,1.87,0.57c0.649,0.13,1.3,0.2,1.949,0.2c0.66,0,1.311-0.07,1.96-0.2c0.641-0.12,1.271-0.32,1.87-0.57
			c0.601-0.25,1.181-0.56,1.721-0.92c0.55-0.359,1.06-0.779,1.529-1.24c0.46-0.46,0.87-0.97,1.24-1.52
			c0.36-0.54,0.67-1.12,0.92-1.73c0.25-0.6,0.441-1.229,0.57-1.869c0.13-0.641,0.189-1.301,0.189-1.95
			C436.149,501.35,436.089,500.69,435.96,500.05z"/>
	</g>
</g>
<g>
	<g>
		<path d="M500.801,306.65H11.199c-5.522,0-10,4.478-10,10V367c0,5.522,4.478,10,10,10h197.039L176.67,492H85.846
			c-5.523,0-10,4.478-10,10c0,5.522,4.477,10,10,10h98.449h143.41h63.42c5.522,0,10-4.478,10-10c0-5.522-4.478-10-10-10H335.33
			l-31.568-115h197.039c5.522,0,10-4.478,10-10v-50.35C510.801,311.128,506.323,306.65,500.801,306.65z M314.59,492H266v-57.605
			c0-5.522-4.478-10-10-10c-5.523,0-10,4.478-10,10V492h-48.59l31.568-115h54.043L314.59,492z M490.801,357H21.199v-30.35h469.602
			V357z"/>
	</g>
</g>
<g>
	<g>
		<path d="M265.81,397.411c-0.13-0.641-0.33-1.271-0.58-1.87c-0.25-0.6-0.56-1.181-0.92-1.73c-0.359-0.54-0.779-1.06-1.24-1.52
			c-0.46-0.46-0.97-0.88-1.52-1.24c-0.54-0.36-1.12-0.67-1.72-0.92c-0.61-0.25-1.24-0.44-1.88-0.57c-1.29-0.26-2.61-0.26-3.9,0
			c-0.64,0.13-1.27,0.32-1.87,0.57c-0.61,0.25-1.189,0.56-1.73,0.92c-0.551,0.36-1.061,0.78-1.52,1.24
			c-0.46,0.46-0.88,0.979-1.24,1.52c-0.37,0.55-0.67,1.13-0.92,1.73c-0.25,0.6-0.45,1.229-0.569,1.87c-0.131,0.649-0.2,1.3-0.2,1.96
			c0,0.649,0.069,1.3,0.2,1.949c0.118,0.64,0.319,1.27,0.569,1.87c0.25,0.6,0.561,1.181,0.92,1.73c0.36,0.54,0.78,1.06,1.24,1.52
			c0.46,0.46,0.97,0.88,1.52,1.24c0.54,0.36,1.119,0.67,1.73,0.92c0.601,0.25,1.23,0.44,1.87,0.57c0.64,0.13,1.3,0.19,1.95,0.19
			c0.649,0,1.31-0.06,1.95-0.19s1.27-0.32,1.88-0.57c0.6-0.25,1.18-0.56,1.72-0.92c0.55-0.36,1.06-0.78,1.52-1.24
			c0.461-0.46,0.881-0.98,1.24-1.52c0.36-0.55,0.67-1.13,0.92-1.73c0.25-0.6,0.45-1.23,0.57-1.87c0.14-0.649,0.2-1.3,0.2-1.949
			C266,398.711,265.94,398.061,265.81,397.411z"/>
	</g>
</g>
<g>
</g>
<g>
</g>
<g>
</g>
<g>
</g>
<g>
</g>
<g>
</g>
<g>
</g>
<g>
</g>
<g>
</g>
<g>
</g>
<g>
</g>
<g>
</g>
<g>
</g>
<g>
</g>
<g>
</g>
</svg>
