<svg xmlns="http://www.w3.org/2000/svg" xmlns:xlink="http://www.w3.org/1999/xlink" version="1.1" x="0px" y="0px" viewBox="0 0 100 125" enable-background="new 0 0 100 100" xml:space="preserve"><path d="M49.4,92.4l0.6,0.1l0.6-0.2c0.4-0.1,10.2-2.7,19.9-13.1C79.4,69.9,90,52,90,20v-2.5h-2.5c-12.6,0-25.1-3.3-36.1-9.6L50,7.1  l-1.4,0.8c-11,6.3-23.5,9.6-36.1,9.6h-5V20c0,32,11.3,50,20.7,59.4C38.6,89.7,49,92.3,49.4,92.4z M50,12.9c10.7,5.9,22.7,9.2,35,9.6  c-0.4,22.7-6.6,41.1-17.8,53.2c-7.5,8-15,11-17.2,11.7C45.1,85.9,13.5,74,12.5,22.5C25.6,22.5,38.5,19.2,50,12.9z"/><path d="M49.5,83.3l0.5,0.2l0.5-0.2c6.6-2.7,28.4-14.8,30.7-56l0.1-1.2l-1.2-0.1c-10.3-1-20.2-3.8-29.4-8.5L50,17.1l-0.6,0.3  c-10,5.1-20.7,8-31.8,8.7l-1.2,0.1l0.1,1.2C19,68.6,42.4,80.6,49.5,83.3z M51.2,80.2l0.1-59.6c8.6,4.1,17.7,6.7,27.2,7.8  C76.1,64,58.8,76.4,51.2,80.2z M48.7,20.5l-0.1,59.7c-8.1-3.6-27-15.8-29.6-51.7C29.4,27.7,39.4,25,48.7,20.5z"/></svg>