<svg xmlns="http://www.w3.org/2000/svg" xmlns:xlink="http://www.w3.org/1999/xlink" version="1.1" x="0px" y="0px" viewBox="0 0 100 100" enable-background="new 0 0 100 100" xml:space="preserve"><g><rect x="-192" width="185" height="99"></rect><rect y="-36" width="100" height="30"></rect><text transform="matrix(1 0 0 1 66 -19.5)" fill="#000000" font-family="'Helvetica'" font-size="2.4">http://thenounproject.com</text><text transform="matrix(1 0 0 1 7.166 -24.5)"><tspan x="0" y="0" fill="#000000" font-family="'Helvetica-Bold'" font-size="6.1578">The Noun Project</tspan><tspan x="1.12" y="4.8" fill="#000000" font-family="'Helvetica-Bold'" font-size="4">Icon Template</tspan></text><text transform="matrix(1 0 0 1 -178.5 10.5)" fill="#000000" font-family="'Helvetica-Bold'" font-size="6.1578">Reminders</text><line fill="#000000" stroke="#FFFFFF" stroke-miterlimit="10" x1="8" y1="-14.5" x2="18" y2="-14.5"></line><line fill="#000000" stroke="#FFFFFF" stroke-miterlimit="10" x1="-179" y1="16.5" x2="-162" y2="16.5"></line><g><g><g><rect x="-170.802" y="31.318" fill="#000000" width="8.721" height="8.642"></rect><path fill="#000000" d="M-164.455,42.312h4.747v-4.703h-4.747V42.312z M-159.266,42.749h-5.63V37.17h5.63V42.749      L-159.266,42.749z M-166.221,44.062h8.279v-8.203h-8.279V44.062L-166.221,44.062z M-157.5,44.5h-9.163v-9.079h9.163V44.5      L-157.5,44.5z"></path><polygon fill="#000000" points="-166.149,44.133 -166.292,43.991 -158.013,35.787 -157.871,35.929     "></polygon></g></g></g><rect x="-179" y="58" fill="none" width="35" height="32.5"></rect><text transform="matrix(1 0 0 1 -179 60.1572)"><tspan x="0" y="0" fill="#000000" font-family="'Helvetica-Bold'" font-size="3">Strokes</tspan><tspan x="0" y="5" fill="#000000" font-family="'Helvetica'" font-size="2.4">Try to keep strokes at 4px</tspan><tspan x="0" y="10" fill="#000000" font-family="'Helvetica'" font-size="2.4">Minimum stroke weight is 2px</tspan><tspan x="0" y="14.5" fill="#000000" font-family="'Helvetica'" font-size="2.4">For thicker strokes use even </tspan><tspan x="0" y="17.5" fill="#000000" font-family="'Helvetica'" font-size="2.4">numbers: 6px, 8px etc.</tspan><tspan x="0" y="22" fill="#000000" font-family="'Helvetica-Bold'" font-size="2.4">Remember to expand strokes </tspan><tspan x="0" y="25" fill="#000000" font-family="'Helvetica-Bold'" font-size="2.4">before saving as an SVG </tspan></text><rect x="-136.5" y="58" fill="none" width="35" height="32.5"></rect><text transform="matrix(1 0 0 1 -136.5 60.1572)"><tspan x="0" y="0" fill="#000000" font-family="'Helvetica-Bold'" font-size="3">Size</tspan><tspan x="0" y="5" fill="#000000" font-family="'Helvetica'" font-size="2.4">Cannot be wider or taller than </tspan><tspan x="0" y="8.5" fill="#000000" font-family="'Helvetica'" font-size="2.4">100px (artboard size)</tspan><tspan x="0" y="13.5" fill="#000000" font-family="'Helvetica'" font-size="2.4">Scale your icon to fill as much of </tspan><tspan x="0" y="16.5" fill="#000000" font-family="'Helvetica'" font-size="2.4">the artboard as possible</tspan></text><rect x="-94" y="58" fill="none" width="35" height="32.5"></rect><text transform="matrix(1 0 0 1 -94 60.1572)"><tspan x="0" y="0" fill="#000000" font-family="'Helvetica-Bold'" font-size="3">Ungroup</tspan><tspan x="0" y="5" fill="#000000" font-family="'Helvetica'" font-size="2.4">If your design has more than one </tspan><tspan x="0" y="8" fill="#000000" font-family="'Helvetica'" font-size="2.4">shape, make sure to ungroup</tspan></text><rect x="-50" y="58" fill="none" width="35" height="32.5"></rect><text transform="matrix(1 0 0 1 -50 60.1572)"><tspan x="0" y="0" fill="#000000" font-family="'Helvetica-Bold'" font-size="3">Save as</tspan><tspan x="0" y="5" fill="#000000" font-family="'Helvetica'" font-size="2.4">Save as .SVG and make sure </tspan><tspan x="0" y="8" fill="#000000" font-family="'Helvetica'" font-size="2.4">“Use Artboards” is checked</tspan></text><text transform="matrix(1.0074 0 0 1 -125.542 30.5933)" fill="#000000" font-family="'Helvetica'" font-size="2.5731">100px</text><text transform="matrix(1.0074 0 0 1 -41 39)" fill="#000000" font-family="'Helvetica-Bold'" font-size="5.1462">.SVG</text><rect x="-126.514" y="34.815" fill="#000000" width="10.261" height="10.185"></rect><rect x="-126.477" y="31.766" fill="#000000" width="0.522" height="2.337"></rect><rect x="-116.812" y="31.766" fill="#000000" width="0.523" height="2.337"></rect><rect x="-127" y="32.337" fill="#000000" width="11.233" height="0.572"></rect><g><rect x="-83.805" y="33.844" fill="#000000" width="10.305" height="10.156"></rect><rect x="-76.809" y="28.707" fill="#000000" width="3.308" height="3.261"></rect></g><rect x="-178.5" y="22.5" fill="#000000" stroke="#FFFFFF" stroke-miterlimit="10" width="30" height="30"></rect><rect x="-136.5" y="22.5" fill="#000000" stroke="#FFFFFF" stroke-miterlimit="10" width="30" height="30"></rect><rect x="-93.5" y="22.5" fill="#000000" stroke="#FFFFFF" stroke-miterlimit="10" width="30" height="30"></rect><rect x="-49.5" y="22.5" fill="#000000" stroke="#FFFFFF" stroke-miterlimit="10" width="30" height="30"></rect></g><g><g><circle fill-rule="evenodd" clip-rule="evenodd" cx="49.559" cy="47.904" r="11.038"></circle><path fill-rule="evenodd" clip-rule="evenodd" d="M85.699,60.148l-0.427-0.197c-2.112-0.983-4.626-0.065-5.606,2.049L73.49,75.273    l-7.301-12.84c-1.153-2.026-3.731-2.733-5.76-1.581l-0.407,0.231c-0.103,0.057-0.197,0.122-0.293,0.189    c-0.083-0.006-0.167-0.016-0.252-0.016H39.637c-1.778,0-3.297,1.104-3.92,2.66c-1.135,0.243-2.17,0.945-2.789,2.035l-7.304,12.836    l-6.171-13.271c-0.985-2.113-3.497-3.029-5.61-2.049l-0.426,0.2c-2.114,0.98-3.03,3.495-2.049,5.611l9.858,21.188    c0.899,1.938,3.083,2.862,5.066,2.252c1.15-0.236,2.201-0.943,2.826-2.045l6.297-11.068V93.78c0,2.331,1.89,4.22,4.221,4.22    h19.841c2.331,0,4.224-1.889,4.224-4.22V76.087l6.295,11.069c0.625,1.104,1.678,1.812,2.825,2.047    c1.986,0.613,4.168-0.316,5.068-2.251l9.854-21.192C88.732,63.644,87.813,61.133,85.699,60.148z"></path></g><g><path fill-rule="evenodd" clip-rule="evenodd" d="M56.911,14.522c-0.121,1.646-0.882,3.074-2.314,2.524    c-0.222-0.705,0.044-1.439-0.031-2.023c-0.425-3.384-5.556-4.014-6.077,0.438c-4.239-1.393-8.476-2.787-12.713-4.18    c1.698-4.934-5.09-7.226-6.001-1.976c-1.573-0.475-2.381-1.411-1.611-3.286c1.509-1.257,2.883-2.208,5.097-2.143    c0.692,0.024,1.474,0.384,2.312,0.338c0.664-0.039,1.302-0.617,1.958-0.84c1.932-0.662,4.265-1.087,6.863-0.501    C51.301,4.436,54.021,9.723,56.911,14.522z M38.862,4.132c-0.124,0.456-0.246,0.907-0.369,1.363    c2.483,0.885,4.779,1.391,7.267,2.283c0.288-1.07,0.577-2.145,0.866-3.214C43.691,3.137,40.844,3.116,38.862,4.132z M46.906,8.156    c1.53,0.503,3.06,1.007,4.59,1.51c-0.429-2.031-1.957-3.408-3.863-4.558C47.264,6.2,47.231,7.093,46.906,8.156z"></path><path fill-rule="evenodd" clip-rule="evenodd" d="M33.141,6.811c1.788,0.171,2.798,1.643,2.37,3.323    c-0.862,3.384-5.702,1.714-4.882-1.5C30.926,7.457,31.782,6.675,33.141,6.811z"></path><path fill-rule="evenodd" clip-rule="evenodd" d="M51.679,12.907c1.885,0.139,3.004,1.797,2.265,3.711    c-1.274,3.302-6.369,0.578-4.363-2.707C49.877,13.424,50.62,12.827,51.679,12.907z"></path></g><g><path d="M86.444,40.25c0,0,0.082,0.527,0.471,1.562c1.033-0.931,2.233-1.702,3.573-2.197c0.041-0.013,0.078-0.028,0.118-0.043    c-0.034-4.013-1.387-8.576-1.089-9.928c0,0-1.016,1.283-4.46,5.796c-2.174,2.85-2.147,7.323-0.667,9.492    c0.486-0.838,1.086-1.644,1.782-2.384C86.138,40.769,86.444,40.25,86.444,40.25z"></path><path d="M99.411,37.013c0,0-1.962,0.682-8.715,3.169c-5.828,2.147-9.324,10.326-5.702,12.533c2.386-5.678,6.471-9.138,6.471-9.138    s-3.458,4.741-3.699,9.665C94.397,52.606,97.427,39,99.411,37.013z"></path></g><g><path fill-rule="evenodd" clip-rule="evenodd" d="M76.815,6.572c2.809,0.143,5.462,0.512,8.251,0.679    c-0.018,1.561-0.099,3.08-0.107,4.643c-1.335-0.026-2.535-0.245-3.828-0.33c0.774,4.185,1.586,8.319,2.424,12.415    c-3.826,0.725-7.651,1.452-11.474,2.179c-0.911-3.987-1.6-8.302-2.422-12.417c-1.059,0.408-2.21,1.233-3.364,1.76    c-0.588-1.526-1.276-2.906-1.891-4.393c2.452-1.162,5.025-2.535,7.376-3.582c0.801,0.534,1.419,1.352,2.494,1.313    C75.817,8.774,76.281,7.403,76.815,6.572z"></path></g><path fill-rule="evenodd" clip-rule="evenodd" d="M7.192,43.521c0,0-8.815,0.063-6.927,6.585l2.924,10.1l19.504-6.87l-2.562-8.846   L7.192,43.521z M1.084,47.525c0.342,0.328,0.892,0.465,1.443,0.304c0.77-0.224,1.243-0.94,1.05-1.602   c-0.119-0.415-0.474-0.709-0.912-0.816c0.688-0.432,1.651-0.822,2.995-1.12c0.28-0.061,1.222,0.013,2.173,0.111   c-0.653,0.271-1.077,0.629-1.003,0.886c0.091,0.317,0.921,0.356,1.852,0.089c0.625-0.182,1.135-0.454,1.375-0.712   c0.065,0.009,0.104,0.013,0.104,0.013l3.746,0.462l-1.037,0.355L9.371,46.7L1.31,49.06C1.31,49.06,0.947,48.389,1.084,47.525z    M6.306,56.563c-0.619,0.178-1.257-0.146-1.424-0.723c-0.169-0.582,0.198-1.197,0.816-1.375c0.616-0.18,1.255,0.147,1.421,0.725   C7.287,55.771,6.922,56.386,6.306,56.563z M6.81,52.288c-1.061,0.307-2.14-0.195-2.409-1.123c-0.27-0.926,0.375-1.927,1.437-2.235   c1.063-0.309,2.142,0.195,2.411,1.119C8.516,50.979,7.873,51.98,6.81,52.288z M9.102,51.169c-0.179-0.621,0.256-1.286,0.97-1.493   c0.714-0.21,1.439,0.124,1.619,0.742c0.178,0.619-0.256,1.29-0.972,1.497C10.004,52.117,9.28,51.787,9.102,51.169z M14.402,55.206   c-1.083,0.312-2.182-0.199-2.455-1.147c-0.274-0.945,0.382-1.966,1.463-2.279c1.081-0.312,2.181,0.197,2.455,1.146   C16.139,53.873,15.483,54.896,14.402,55.206z M13.191,47.749c-0.84,0.241-1.646,0.165-2.125-0.146l3.76-0.953   C14.537,47.11,13.942,47.532,13.191,47.749z M18.036,51.651c-0.694,0.199-1.404-0.137-1.583-0.753   c-0.178-0.619,0.239-1.281,0.934-1.484c0.697-0.199,1.404,0.137,1.584,0.756C19.151,50.788,18.73,51.453,18.036,51.651z"></path><g><path fill-rule="evenodd" clip-rule="evenodd" d="M12.604,24.127c0.687-2.333,0.361-4.74-0.725-6.742    c-2.001,1.033-3.62,2.802-4.426,5.079L12.604,24.127z"></path><path fill-rule="evenodd" clip-rule="evenodd" d="M16.388,25.354l2.839,0.916c0.853-2.42,2.611-4.282,4.771-5.329    c-1.055-1.828-2.741-3.297-4.875-4.05L16.388,25.354z"></path><path fill-rule="evenodd" clip-rule="evenodd" d="M15.915,25.199l2.737-8.461c-2.173-0.638-4.4-0.432-6.323,0.432    c1.138,2.11,1.474,4.649,0.749,7.111L15.915,25.199z"></path><path fill-rule="evenodd" clip-rule="evenodd" d="M19.7,26.421l5.151,1.665c0.681-2.316,0.399-4.699-0.617-6.709    C22.184,22.362,20.512,24.127,19.7,26.421z"></path><path fill-rule="evenodd" clip-rule="evenodd" d="M19.546,26.894c-0.684,2.335-0.36,4.745,0.726,6.742    c2.001-1.033,3.625-2.802,4.426-5.077L19.546,26.894z"></path><path fill-rule="evenodd" clip-rule="evenodd" d="M19.076,26.743l-2.84-0.918l-2.732,8.461c2.168,0.638,4.398,0.432,6.32-0.432    C18.687,31.743,18.35,29.204,19.076,26.743z"></path><path fill-rule="evenodd" clip-rule="evenodd" d="M7.302,22.937c-0.682,2.316-0.401,4.699,0.619,6.707    c2.049-0.987,3.72-2.748,4.532-5.044L7.302,22.937z"></path><path fill-rule="evenodd" clip-rule="evenodd" d="M15.763,25.672l-2.837-0.918c-0.853,2.42-2.611,4.285-4.769,5.329    c1.052,1.828,2.739,3.297,4.873,4.052L15.763,25.672z"></path></g></g></svg>