<svg xmlns="http://www.w3.org/2000/svg" xmlns:xlink="http://www.w3.org/1999/xlink" version="1.1" x="0px" y="0px" viewBox="0 0 595.28 745" enable-background="new 0 0 595.28 596" xml:space="preserve"><path d="M436.167,432.474c-0.852-8.435-4.621-33.919-20.178-58.685c-13.369-21.277-50.348-30.721-78.25-35.955l-3.678-11.61  c8.07,6.56,17.111,9.937,27.041,9.937c20.004,0,37.134-13.648,42.615-18.522c7.404-6.73,0.74-9.195-1.674-9.826  c-5.609-1.068-17.388-6.141-14.441-61.441c2.818-53.04-37.564-70.388-44.939-73.105c-12.373-11.503-28.459-17.58-46.614-17.58  c-24.708,0-50.112,11.733-66.282,30.619c-14.53,16.957-20.644,38.427-17.221,60.451c3.679,23.609,0.924,41.38-8.182,52.819  c-7.997,10.038-18.384,11.896-20.873,12.207c-11.75,1.226-3.268,8.155-1.803,9.275c13.334,8.157,27.225,12.321,41.326,12.321  c17.834,0,31.835-6.607,39.439-11.219l-4.968,15.675c-27.901,5.245-64.88,14.688-78.241,35.955  c-15.904,25.319-19.492,51.409-20.242,59.233c-0.082,2.095,0.54,6.718,7.541,7.293h263.172  C431.737,440.266,437.146,439.494,436.167,432.474z M335.278,349.191c0.027-0.046,0.063-0.094,0.091-0.137  c0.448-0.688,0.861-1.345,1.208-1.924c1.4,0.266,2.984,0.568,4.648,0.896l-22.054,31.737l-7.009-9.554  c0.713-0.32,1.409-0.668,2.096-1.025c0.211-0.11,0.43-0.201,0.631-0.311c1.154-0.623,2.26-1.283,3.322-1.985  c0.282-0.184,0.539-0.376,0.805-0.56c0.787-0.539,1.547-1.088,2.287-1.665c0.33-0.255,0.65-0.521,0.979-0.787  c0.659-0.538,1.292-1.079,1.913-1.639c0.292-0.267,0.595-0.53,0.879-0.796c0.667-0.631,1.307-1.254,1.922-1.894  c0.191-0.185,0.383-0.374,0.566-0.567c0.796-0.843,1.564-1.684,2.278-2.527c0.046-0.054,0.082-0.099,0.138-0.155  c0.66-0.784,1.28-1.555,1.866-2.305c0.157-0.192,0.294-0.376,0.44-0.566c0.477-0.632,0.924-1.245,1.354-1.84  c0.119-0.165,0.229-0.329,0.349-0.493C334.453,350.426,334.886,349.794,335.278,349.191z M311.449,360.033  c-0.33,0.193-0.679,0.368-1.015,0.552c-0.605,0.329-1.219,0.64-1.85,0.923c-0.376,0.165-0.76,0.331-1.136,0.484  c-0.64,0.256-1.29,0.484-1.949,0.696c-0.392,0.128-0.777,0.255-1.179,0.366c-0.724,0.191-1.465,0.348-2.215,0.475  c-0.356,0.065-0.695,0.147-1.063,0.201c-1.114,0.156-2.259,0.249-3.431,0.249s-2.307-0.093-3.412-0.249  c-0.367-0.054-0.713-0.136-1.07-0.201c-0.742-0.136-1.484-0.283-2.197-0.475c-0.402-0.111-0.787-0.238-1.18-0.366  c-0.66-0.212-1.301-0.44-1.932-0.696c-0.385-0.153-0.768-0.319-1.145-0.484c-0.631-0.291-1.244-0.605-1.848-0.923  c-0.339-0.184-0.678-0.358-0.998-0.54c-0.686-0.404-1.346-0.826-1.994-1.266c-0.221-0.145-0.449-0.283-0.66-0.438  c-0.851-0.593-1.674-1.226-2.461-1.877c-0.191-0.164-0.375-0.328-0.557-0.481c-0.596-0.515-1.174-1.019-1.723-1.54  c-0.274-0.255-0.529-0.51-0.787-0.768c-0.447-0.447-0.887-0.888-1.308-1.336c-0.265-0.274-0.513-0.558-0.768-0.832  c-0.395-0.431-0.771-0.86-1.126-1.282c-0.238-0.274-0.477-0.549-0.695-0.824c-0.357-0.438-0.697-0.86-1.026-1.29  c-0.191-0.247-0.392-0.493-0.567-0.731c-0.375-0.495-0.723-0.971-1.052-1.446c-0.147-0.201-0.293-0.411-0.431-0.611  c-0.365-0.513-0.693-1.017-0.998-1.483c-0.172-0.258-0.31-0.484-0.467-0.714c-0.153-0.257-0.318-0.513-0.457-0.741  c-0.154-0.258-0.292-0.486-0.43-0.714c-0.045-0.082-0.1-0.175-0.146-0.257l5.169-16.298c12.703,9.06,23.537,10.817,25.504,11.063  c0.037,0.011,0.047,0.011,0.074,0.011c0.027,0.007,0.1,0.018,0.127,0.018l0.568,0.064h0.018l0.275,0.026l0,0l0,0l0.613-0.146  c2.104-0.285,12.701-2.132,25.302-11.182l5.225,16.453c-0.046,0.082-0.091,0.155-0.136,0.237c-0.139,0.236-0.293,0.484-0.459,0.76  c-0.109,0.182-0.229,0.373-0.347,0.566c-0.185,0.294-0.366,0.577-0.567,0.896c-0.174,0.267-0.377,0.559-0.566,0.842  c-0.321,0.478-0.661,0.962-1.026,1.475c-0.267,0.383-0.54,0.758-0.833,1.152c-0.21,0.283-0.447,0.577-0.668,0.86  c-0.293,0.385-0.596,0.761-0.905,1.152c-0.257,0.303-0.513,0.614-0.778,0.917c-0.338,0.393-0.678,0.786-1.035,1.18  c-0.273,0.31-0.557,0.612-0.842,0.915c-0.393,0.421-0.805,0.832-1.216,1.243c-0.284,0.274-0.567,0.56-0.86,0.843  c-0.521,0.484-1.063,0.971-1.611,1.436c-0.219,0.192-0.43,0.394-0.658,0.577c-0.777,0.651-1.592,1.273-2.443,1.866  c-0.221,0.155-0.467,0.303-0.695,0.458C312.769,359.229,312.117,359.651,311.449,360.033z M223.015,324.008  c-9.234,0-18.421-2.05-27.416-6.112c5.041-2.251,10.889-6.013,15.939-12.298c10.928-13.563,14.377-33.852,10.268-60.28  c-3.842-24.706,6.076-42.413,15.072-52.919c14.449-16.863,37.117-27.344,59.171-27.344c16.059,0,30.188,5.418,40.876,15.678  l0.814,0.775l1.07,0.331c1.721,0.521,42.121,13.479,39.432,64.038c-2.086,39.211,2.406,60.57,14.871,68.313  c-6.873,5.181-18.988,12.601-32.01,12.601c-9.6,0-18.304-4.145-25.916-12.292c18.256-18.635,27.811-42.852,30.738-51.225  c2.26-6.045-2.6-9.316-2.6-9.316l0.055-0.018c-18.731-12.317-24.094-36.595-25.484-46.048c0-0.015-0.009-0.019-0.009-0.028  c-2.644-12.062-11.212-4.836-11.212-4.836l-0.017-0.041c-38.892,29.294-70.242,33.832-85.682,33.832  c-4.702,0-7.328-0.45-7.339-0.459c-5.407-0.988-5.72,2.932-5.518,5.029l0.047,0.307c5.582,35.778,17.715,58.054,30.279,71.908  C252.142,317.547,239.339,324.008,223.015,324.008z M238.433,246.143c0.777,0.026,1.629,0.044,2.544,0.044  c16.198,0,48.537-4.474,88.198-33.353c2.232,12.18,8.793,34.818,27.635,48.03c-3.119,8.595-12.811,32.147-30.398,49.042l-0.02,0.018  c-1.453,1.398-2.982,2.737-4.547,4.027c-0.431,0.357-0.871,0.686-1.299,1.034c-1.199,0.942-2.417,1.847-3.679,2.718  c-0.403,0.283-0.798,0.574-1.208,0.852c-1.539,1.014-3.131,1.957-4.76,2.846c-0.458,0.246-0.905,0.484-1.363,0.722  c-1.692,0.869-3.423,1.676-5.207,2.39c-0.311,0.127-0.623,0.227-0.924,0.337c-1.94,0.743-3.926,1.401-5.977,1.922  c-0.191-0.034-0.447-0.082-0.705-0.147c-0.164-0.025-0.318-0.063-0.511-0.107c-0.385-0.082-0.869-0.221-1.354-0.349  c-0.248-0.064-0.494-0.127-0.769-0.21c-0.513-0.155-1.108-0.348-1.712-0.549c-0.348-0.121-0.694-0.237-1.069-0.367  c-0.623-0.228-1.301-0.493-1.986-0.776c-0.44-0.175-0.888-0.367-1.355-0.568c-0.702-0.312-1.436-0.659-2.195-1.025  c-0.522-0.255-1.062-0.529-1.601-0.823c-0.77-0.402-1.557-0.842-2.371-1.316c-0.576-0.34-1.172-0.705-1.767-1.079  c-0.833-0.532-1.665-1.072-2.525-1.676c-0.603-0.422-1.226-0.897-1.849-1.355c-0.877-0.668-1.775-1.345-2.672-2.095  c-1.316-1.09-2.636-2.215-3.972-3.505l-3.038-2.91l-0.018,0.02C255.023,296.115,244.144,277.009,238.433,246.143z M258.655,347.131  c0,0.011,0.012,0.02,0.012,0.02c0.018,0.027,0.027,0.056,0.045,0.073c0.312,0.513,0.668,1.079,1.053,1.685  c0.128,0.189,0.266,0.402,0.402,0.603c0.302,0.456,0.623,0.935,0.969,1.427c0.184,0.267,0.367,0.532,0.568,0.807  c0.348,0.484,0.714,0.978,1.107,1.492c0.209,0.283,0.412,0.558,0.64,0.841c0.485,0.623,0.999,1.254,1.538,1.896  c0.146,0.182,0.283,0.356,0.439,0.538c0.695,0.807,1.427,1.619,2.205,2.433c0.229,0.239,0.476,0.478,0.715,0.724  c0.567,0.586,1.152,1.164,1.775,1.738c0.31,0.292,0.639,0.586,0.959,0.881c0.588,0.521,1.19,1.041,1.813,1.545  c0.356,0.292,0.704,0.578,1.06,0.861c0.705,0.538,1.429,1.053,2.162,1.563c0.311,0.221,0.604,0.441,0.924,0.651  c1.052,0.685,2.141,1.345,3.275,1.958c0.246,0.128,0.513,0.238,0.76,0.366c0.906,0.467,1.83,0.905,2.781,1.299  c0.43,0.185,0.869,0.34,1.3,0.504c0.009,0,0.019,0,0.027,0.009l-6.396,8.722l-22.384-32.202  C257.165,347.416,257.962,347.26,258.655,347.131z M168.685,430.945c1.254-9.518,5.4-31.333,18.494-52.171  c1.419-2.251,3.258-4.346,5.363-6.321c5.261,7.686,16.91,28.082,18.036,58.492H168.685z M219.947,430.945  c-1.134-33.604-14.009-55.767-19.948-64.23c13.306-8.556,32.121-13.9,46.414-17.094l26.857,38.625c0,0,0.011,0.02,0.018,0.02  l0.23,0.329c1.061,1.455,5.518,6.652,10.66-0.349c0,0,0,0,0-0.004l11.037-15.02c0.786,0.054,1.563,0.125,2.379,0.125  c0.008,0,0.018,0,0.018,0h0.01l0,0c1.491,0,2.93-0.108,4.338-0.292c0.201-0.017,0.41-0.045,0.613-0.073l11.749,15.997  c1.437,1.784,5.609,5.747,10.367-0.733c0-0.004,0-0.008,0.01-0.013l26.465-38.063c14.111,3.266,31.817,8.556,44.446,16.802  c-6.021,8.638-18.65,30.682-19.775,63.974H219.947z M385.206,430.945c1.115-29.978,12.444-50.221,17.816-58.164  c1.958,1.885,3.688,3.861,5.033,5.993c13.049,20.773,17.221,42.636,18.484,52.171H385.206z"/></svg>