<svg xmlns="http://www.w3.org/2000/svg" xmlns:xlink="http://www.w3.org/1999/xlink" version="1.1" x="0px" y="0px" viewBox="0 0 100 125" enable-background="new 0 0 100 100" xml:space="preserve"><g><path fill="none" d="M29.752,33.369c-0.901,1.829,0.526,7.2,2.349,8.843c0.345,0.312,0.544,0.344,0.673,0.315   c-0.704-1.795-1.939-5.276-2.764-9.475C29.901,33.115,29.825,33.222,29.752,33.369z"/><path fill="none" d="M69.841,36.043c-0.413,1.721-0.95,3.421-1.645,5.013C68.99,39.728,69.635,37.768,69.841,36.043z"/><path fill="none" d="M40.722,22.193c0.281-0.389,0.803-0.517,1.235-0.298c0.429,0.218,0.635,0.716,0.487,1.173   c-0.672,2.074-1.642,3.782-2.507,5.034c6.833-2.138,13.824-7.211,13.903-7.269c0.362-0.266,0.862-0.25,1.206,0.041   c0.345,0.289,0.448,0.777,0.249,1.181c-0.545,1.106-1.301,2.087-2.109,2.924c3.856-1.618,6.697-3.783,6.737-3.814   c0.19-0.146,0.43-0.217,0.669-0.2c1.208,0.09,2.192,0.617,2.843,1.525c1.333,1.858,0.954,4.817,0.704,6.1   c2.059,2.147,2.654,6.827,2.791,10.368c2.973-8.134,2.159-18.785,2.149-18.909c-0.002-0.033-0.003-0.066-0.003-0.099   c0.168-8.272-9.106-8.897-9.502-8.92c-0.315-0.017-0.604-0.187-0.773-0.454c-1.516-2.402-4.437-3.62-8.681-3.62   c-3.337,0-6.219,0.79-6.248,0.799c-0.032,0.009-0.066,0.016-0.099,0.022C32.928,9.605,31.628,19.664,31.617,19.766   c-1.3,6.62,0.342,13.956,1.783,18.584l0.272-7.925c0.011-0.304,0.161-0.586,0.409-0.762C36.589,27.87,40.681,22.249,40.722,22.193z   "/><path fill="none" d="M58.292,63.284c-0.016-0.02-0.032-0.038-0.046-0.06c-0.026-0.039-0.04-0.082-0.06-0.124   c-0.006-0.012-0.012-0.024-0.018-0.037c-0.013-0.03-0.033-0.056-0.042-0.088c-0.002-0.006-0.006-0.011-0.008-0.017   c-0.057-0.197-0.137-0.417-0.223-0.66c-0.167-0.474-0.364-1.036-0.516-1.675c-0.421,0.447-0.84,0.888-1.253,1.321l-0.618,0.651   c-1.094,1.147-4.215,1.298-5.775,1.298c-0.1,0-0.193-0.001-0.279-0.002c-1.671-0.019-4.631-0.225-5.678-1.375l-0.452-0.496   c-0.265-0.291-0.537-0.59-0.812-0.892c-0.124,0.468-0.262,0.899-0.385,1.261c-0.071,0.207-0.136,0.397-0.186,0.569   c-0.004,0.015-0.015,0.026-0.02,0.041c-0.02,0.057-0.048,0.108-0.078,0.161c-0.022,0.039-0.042,0.079-0.069,0.115   c-0.034,0.044-0.075,0.08-0.116,0.118c-0.034,0.032-0.065,0.065-0.104,0.091c-0.01,0.007-0.017,0.018-0.028,0.025l8.441,16.826   l8.493-16.875c-0.022-0.016-0.034-0.041-0.053-0.059c-0.012-0.011-0.023-0.024-0.035-0.035   C58.347,63.339,58.317,63.315,58.292,63.284z"/><path fill="none" d="M45.225,61.199c0.202,0.212,1.523,0.69,4.141,0.734c2.793,0.06,4.457-0.424,4.726-0.687l0.618-0.651   c3.342-3.51,7.13-7.487,8.562-12.12l1.679-5.352c0.243-4.315-0.214-11.672-2.485-13.416c-0.31-0.238-0.448-0.639-0.352-1.018   c0.246-0.962,0.674-3.748-0.27-5.06c-0.256-0.356-0.598-0.573-1.059-0.667c-1.348,0.975-6.537,4.501-12.373,5.473   c-0.471,0.082-0.938-0.2-1.089-0.659c-0.077-0.234-0.061-0.479,0.031-0.692c-3.006,1.557-6.53,3.047-9.864,3.638   c-0.418,0.077-0.833-0.129-1.033-0.502c-0.289,0.269-0.572,0.517-0.845,0.735l-0.43,12.502c-0.01,0.302-0.166,0.564-0.396,0.738   l1.488,4.313c1.514,4.543,5.386,8.784,8.497,12.193L45.225,61.199z"/><path fill="none" d="M81.992,76.448c-1.477-1.281-5.42-4.698-19.528-11.158l-2.226-1.002l-9.395,18.667   c-0.166,0.331-0.504,0.539-0.874,0.539c0,0,0,0-0.001,0c-0.37,0-0.708-0.209-0.873-0.54l-9.36-18.659   c-0.429,0.196-0.857,0.389-1.279,0.6l-0.126,0.063c-0.761,0.309-1.259,0.539-1.732,0.801c-0.032,0.018-0.066,0.035-0.101,0.05   l-1.258,0.54c-0.211,0.133-0.456,0.255-0.676,0.339c-0.111,0.063-0.231,0.118-0.353,0.169c-0.055,0.025-0.114,0.045-0.163,0.075   c-0.168,0.113-0.337,0.194-0.534,0.283l-0.208,0.097c-0.04,0.02-0.081,0.036-0.123,0.051c-0.053,0.018-0.105,0.048-0.159,0.075   c-0.096,0.048-0.191,0.094-0.287,0.133c-0.096,0.057-0.192,0.106-0.289,0.155c-0.06,0.03-0.121,0.058-0.182,0.098   c-0.072,0.048-0.15,0.085-0.232,0.113c-0.053,0.017-0.105,0.048-0.159,0.075c-0.094,0.047-0.188,0.093-0.282,0.131   c-0.209,0.124-0.407,0.202-0.579,0.262c-0.064,0.04-0.123,0.075-0.182,0.111c-0.067,0.04-0.135,0.08-0.216,0.135   c-0.072,0.047-0.148,0.085-0.229,0.112c-0.076,0.026-0.149,0.075-0.212,0.11l-0.165,0.09c-0.044,0.023-0.09,0.042-0.138,0.057   c-0.075,0.025-0.146,0.073-0.207,0.107l-0.164,0.09c-0.043,0.022-0.088,0.041-0.135,0.056c-0.074,0.025-0.145,0.073-0.208,0.107   l-0.168,0.093c-0.042,0.02-0.084,0.038-0.128,0.053c-0.137,0.084-0.266,0.161-0.421,0.224c-0.038,0.021-0.08,0.048-0.123,0.074   c-0.1,0.06-0.201,0.118-0.281,0.16c-0.05,0.024-0.104,0.058-0.16,0.092c-0.103,0.062-0.207,0.122-0.29,0.163   c-0.04,0.02-0.081,0.037-0.124,0.052c-0.072,0.072-0.223,0.153-0.314,0.199c-0.086,0.044-0.194,0.089-0.303,0.132   c-0.051,0.021-0.102,0.04-0.143,0.061c-0.154,0.118-0.27,0.199-0.384,0.256c-0.043,0.021-0.087,0.039-0.133,0.054   c-0.108,0.035-0.186,0.073-0.259,0.109l-0.33,0.22c-0.032,0.022-0.067,0.042-0.102,0.06l-0.381,0.191   c-0.158,0.12-0.27,0.197-0.379,0.252c-0.137,0.09-0.219,0.142-0.329,0.197l-0.376,0.187c-0.132,0.087-0.211,0.138-0.314,0.19   c-0.138,0.089-0.218,0.139-0.324,0.192c-0.128,0.085-0.207,0.136-0.311,0.189l-0.749,0.489c-0.063,0.05-0.122,0.089-0.17,0.121   c-0.031,0.031-0.043,0.033-0.078,0.059l-0.254,0.191c-0.086,0.065-0.181,0.115-0.282,0.148l-0.229,0.171   c-0.046,0.034-0.096,0.065-0.147,0.091l-0.186,0.133c-0.075,0.076-0.162,0.139-0.258,0.187l-0.262,0.14l-0.118,0.118   c-0.047,0.047-0.097,0.089-0.152,0.125l-0.739,0.512c-0.046,0.046-0.096,0.087-0.149,0.122l-0.296,0.26   c-0.046,0.047-0.097,0.088-0.152,0.124l-0.192,0.127c-0.029,0.019-0.057,0.036-0.088,0.052l-0.017,0.017   c-0.031,0.031-0.063,0.058-0.097,0.084c-0.087,0.118-0.201,0.213-0.332,0.281l-0.016,0.016c-0.013,0.013-0.09,0.091-0.104,0.103   c-0.806,0.711-1.615,2.155-2.305,4.102c9.55,8.061,21.692,12.493,34.266,12.493c12.545,0,24.706-4.429,34.317-12.485   C83.506,78.467,82.753,77.12,81.992,76.448z"/><path d="M86.359,80.54c-1.002-2.854-1.95-4.568-3.079-5.565c-1.543-1.337-5.639-4.887-20.008-11.467l-2.559-1.152   c-0.297-0.127-0.586-0.253-0.862-0.381c-0.038-0.112-0.068-0.209-0.111-0.33c-0.281-0.797-0.61-1.778-0.633-2.908   c2.539-2.86,4.906-6.033,6.033-9.681l1.431-4.559c0.5,0.012,1.045-0.136,1.553-0.468c2.422-1.589,4.121-7.088,3.67-10.191   c-0.175-1.203-0.632-1.89-1.132-2.287c0.772-5.837,0.421-10.96,0.371-11.612c0.129-7.776-6.776-10.436-10.859-10.827   C58.239,6.42,54.776,5,50.121,5c-3.391,0-6.288,0.739-6.72,0.856c-12.234,2.09-13.714,13.567-13.716,13.607   c-0.766,3.895-0.585,7.969-0.016,11.648c-0.718,0.174-1.304,0.646-1.673,1.394c-1.367,2.776,0.527,9.119,2.795,11.161   c0.646,0.582,1.327,0.842,2.027,0.831l1.601,4.641c1.239,3.717,3.835,7.14,6.425,10.12c-0.059,0.957-0.333,1.809-0.57,2.504   c-0.018,0.054-0.031,0.097-0.048,0.149l-0.446,0.198c-0.012,0.005-0.019,0.016-0.031,0.022c-0.132,0.06-0.268,0.123-0.398,0.183   c-0.603,0.273-1.188,0.54-1.773,0.832l-0.053,0.03c-0.753,0.302-1.309,0.559-1.847,0.855l-1.29,0.553c-0.001,0-0.002,0-0.003,0.001   c0,0-0.001,0-0.002,0.001c-0.059,0.026-0.115,0.056-0.166,0.092c-0.128,0.084-0.297,0.164-0.39,0.196   c-0.074,0.024-0.164,0.071-0.23,0.112c-0.049,0.031-0.106,0.051-0.161,0.075c-0.167,0.072-0.332,0.148-0.478,0.246   c-0.08,0.054-0.163,0.086-0.256,0.128c-0.068,0.031-0.14,0.064-0.218,0.101c-0.114,0.043-0.227,0.097-0.34,0.154   c-0.053,0.026-0.105,0.056-0.158,0.074c-0.084,0.028-0.163,0.067-0.236,0.116c-0.06,0.04-0.121,0.068-0.182,0.098   c-0.095,0.047-0.189,0.096-0.284,0.152c-0.097,0.039-0.195,0.086-0.291,0.135c-0.053,0.026-0.104,0.055-0.157,0.074   c-0.079,0.027-0.156,0.064-0.225,0.11c-0.081,0.053-0.179,0.088-0.345,0.144c-0.08,0.027-0.158,0.064-0.228,0.112   c-0.082,0.053-0.15,0.095-0.217,0.135c-0.065,0.038-0.129,0.077-0.201,0.122c-0.148,0.062-0.292,0.14-0.416,0.21l-0.048,0.027   c-0.158,0.061-0.321,0.148-0.512,0.255c-0.161,0.063-0.32,0.148-0.456,0.225l-0.053,0.03c-0.152,0.061-0.278,0.138-0.412,0.22   c-0.043,0.014-0.084,0.032-0.124,0.052c-0.084,0.041-0.19,0.103-0.295,0.166c-0.055,0.033-0.111,0.068-0.15,0.088   c-0.083,0.041-0.187,0.101-0.29,0.163c-0.038,0.023-0.076,0.047-0.111,0.067c-0.183,0.066-0.386,0.159-0.588,0.32   c-0.018,0.007-0.036,0.013-0.053,0.021c-0.107,0.043-0.213,0.087-0.295,0.128c-0.107,0.053-0.218,0.129-0.361,0.24   c-0.181,0.066-0.317,0.132-0.462,0.204c-0.037,0.018-0.074,0.039-0.108,0.062l-0.331,0.221l-0.321,0.16   c-0.117,0.057-0.235,0.139-0.381,0.254c-0.11,0.054-0.192,0.107-0.323,0.194l-0.385,0.191c-0.103,0.053-0.182,0.103-0.312,0.189   c-0.106,0.053-0.186,0.103-0.326,0.194c-0.102,0.052-0.181,0.101-0.257,0.153l-0.438,0.261c-0.03,0.017-0.057,0.036-0.084,0.056   l-0.492,0.328c-0.07,0.042-0.108,0.062-0.165,0.12c-0.071,0.047-0.139,0.096-0.197,0.145l-0.06,0.045   c-0.225,0.078-0.382,0.205-0.472,0.289l-0.31,0.189c-0.096,0.048-0.182,0.11-0.257,0.186l-0.186,0.132   c-0.034,0.017-0.068,0.036-0.099,0.057l-0.192,0.126c-0.056,0.037-0.109,0.08-0.157,0.128l-0.801,0.574   c-0.054,0.036-0.104,0.077-0.15,0.123l-0.17,0.133c-0.054,0.036-0.105,0.078-0.152,0.125l-0.123,0.124l-0.191,0.134   c-0.093,0.047-0.178,0.108-0.251,0.181l-0.019,0.019c-0.128,0.067-0.239,0.16-0.325,0.275c-0.036,0.027-0.07,0.055-0.101,0.087   l-0.15,0.152c-1.181,1.042-2.216,2.919-3.079,5.581c-0.121,0.374-0.007,0.784,0.29,1.041C23.903,90.242,36.704,95,49.968,95   c13.238,0,26.061-4.757,36.107-13.395C86.38,81.343,86.493,80.92,86.359,80.54z M68.197,41.056   c0.695-1.592,1.232-3.292,1.645-5.013C69.635,37.768,68.99,39.728,68.197,41.056z M32.101,42.211   c-1.823-1.642-3.25-7.014-2.349-8.843c0.073-0.147,0.148-0.253,0.259-0.317c0.825,4.199,2.059,7.68,2.764,9.475   C32.645,42.555,32.446,42.524,32.101,42.211z M34.081,29.662c-0.247,0.177-0.398,0.459-0.409,0.762L33.4,38.35   c-1.441-4.629-3.083-11.964-1.783-18.584c0.011-0.101,1.311-10.161,12.157-11.988c0.033-0.006,0.067-0.013,0.099-0.022   c0.029-0.009,2.911-0.799,6.248-0.799c4.245,0,7.165,1.218,8.681,3.62c0.169,0.267,0.458,0.437,0.773,0.454   c0.396,0.023,9.67,0.648,9.502,8.92c0,0.033,0.001,0.066,0.003,0.099c0.011,0.124,0.824,10.775-2.149,18.909   c-0.138-3.541-0.733-8.222-2.791-10.368c0.25-1.283,0.629-4.242-0.704-6.1c-0.652-0.908-1.635-1.435-2.843-1.525   c-0.239-0.017-0.479,0.053-0.669,0.2c-0.04,0.031-2.881,2.195-6.737,3.814c0.808-0.837,1.565-1.818,2.109-2.924   c0.199-0.404,0.096-0.891-0.249-1.181c-0.344-0.291-0.844-0.307-1.206-0.041c-0.079,0.058-7.069,5.131-13.903,7.269   c0.865-1.251,1.835-2.96,2.507-5.034c0.148-0.458-0.058-0.955-0.487-1.173c-0.432-0.219-0.954-0.091-1.235,0.298   C40.681,22.249,36.589,27.87,34.081,29.662z M36.273,48.509l-1.488-4.313c0.229-0.174,0.386-0.436,0.396-0.738l0.43-12.502   c0.273-0.218,0.556-0.465,0.845-0.735c0.2,0.373,0.614,0.579,1.033,0.502c3.334-0.591,6.857-2.081,9.864-3.638   c-0.092,0.213-0.108,0.458-0.031,0.692c0.151,0.46,0.618,0.741,1.089,0.659c5.835-0.973,11.025-4.498,12.373-5.473   c0.461,0.094,0.803,0.31,1.059,0.667c0.945,1.313,0.516,4.098,0.27,5.06c-0.096,0.379,0.042,0.781,0.352,1.018   c2.271,1.744,2.728,9.101,2.485,13.416l-1.679,5.352c-1.432,4.633-5.22,8.61-8.562,12.12l-0.618,0.651   c-0.269,0.263-1.933,0.747-4.726,0.687c-2.619-0.044-3.94-0.522-4.141-0.734l-0.455-0.498   C41.659,57.293,37.787,53.051,36.273,48.509z M58.463,63.462L49.97,80.337L41.529,63.51c0.011-0.007,0.018-0.018,0.028-0.025   c0.038-0.026,0.069-0.06,0.104-0.091c0.041-0.038,0.082-0.074,0.116-0.118c0.027-0.035,0.046-0.075,0.069-0.115   c0.03-0.052,0.058-0.104,0.078-0.161c0.005-0.015,0.015-0.026,0.02-0.041c0.051-0.172,0.116-0.362,0.186-0.569   c0.123-0.363,0.262-0.793,0.385-1.261c0.274,0.302,0.546,0.601,0.812,0.892l0.452,0.496c1.046,1.15,4.007,1.356,5.678,1.375   c0.086,0.001,0.179,0.002,0.279,0.002c1.56,0,4.681-0.151,5.775-1.298l0.618-0.651c0.413-0.433,0.832-0.874,1.253-1.321   c0.152,0.638,0.348,1.201,0.516,1.675c0.086,0.243,0.165,0.463,0.223,0.66c0.002,0.006,0.006,0.011,0.008,0.017   c0.01,0.031,0.03,0.058,0.042,0.088c0.005,0.013,0.012,0.024,0.018,0.037c0.02,0.042,0.034,0.085,0.06,0.124   c0.014,0.021,0.031,0.04,0.046,0.06c0.024,0.031,0.054,0.056,0.082,0.084c0.012,0.012,0.022,0.024,0.035,0.035   C58.429,63.421,58.441,63.445,58.463,63.462z M49.968,93.043c-12.574,0-24.715-4.432-34.266-12.493   c0.69-1.947,1.499-3.391,2.305-4.102c0.014-0.012,0.091-0.09,0.104-0.103l0.016-0.016c0.131-0.068,0.245-0.163,0.332-0.281   c0.034-0.026,0.067-0.053,0.097-0.084l0.017-0.017c0.031-0.015,0.059-0.032,0.088-0.052l0.192-0.127   c0.054-0.036,0.106-0.077,0.152-0.124l0.296-0.26c0.053-0.035,0.103-0.076,0.149-0.122l0.739-0.512   c0.054-0.036,0.105-0.078,0.152-0.125l0.118-0.118l0.262-0.14c0.096-0.048,0.182-0.111,0.258-0.187l0.186-0.133   c0.052-0.026,0.101-0.056,0.147-0.091l0.229-0.171c0.101-0.033,0.196-0.083,0.282-0.148l0.254-0.191   c0.035-0.026,0.048-0.029,0.078-0.059c0.048-0.032,0.107-0.072,0.17-0.121l0.749-0.489c0.104-0.054,0.183-0.104,0.311-0.189   c0.106-0.053,0.186-0.103,0.324-0.192c0.103-0.053,0.182-0.103,0.314-0.19l0.376-0.187c0.11-0.054,0.192-0.107,0.329-0.197   c0.109-0.055,0.222-0.132,0.379-0.252l0.381-0.191c0.035-0.018,0.07-0.038,0.102-0.06l0.33-0.22   c0.073-0.036,0.151-0.074,0.259-0.109c0.046-0.015,0.09-0.033,0.133-0.054c0.114-0.057,0.23-0.138,0.384-0.256   c0.041-0.021,0.093-0.04,0.143-0.061c0.109-0.043,0.217-0.088,0.303-0.132c0.092-0.046,0.243-0.127,0.314-0.199   c0.043-0.014,0.084-0.032,0.124-0.052c0.083-0.041,0.187-0.101,0.29-0.163c0.055-0.033,0.11-0.068,0.16-0.092   c0.08-0.041,0.181-0.099,0.281-0.16c0.043-0.026,0.085-0.053,0.123-0.074c0.156-0.062,0.285-0.139,0.421-0.224   c0.044-0.014,0.086-0.032,0.128-0.053l0.168-0.093c0.063-0.034,0.135-0.082,0.208-0.107c0.047-0.015,0.092-0.034,0.135-0.056   l0.164-0.09c0.061-0.034,0.133-0.082,0.207-0.107c0.048-0.015,0.094-0.034,0.138-0.057l0.165-0.09   c0.063-0.035,0.136-0.084,0.212-0.11c0.081-0.027,0.158-0.065,0.229-0.112c0.081-0.054,0.149-0.095,0.216-0.135   c0.059-0.035,0.118-0.071,0.182-0.111c0.172-0.06,0.37-0.138,0.579-0.262c0.094-0.038,0.188-0.084,0.282-0.131   c0.053-0.027,0.105-0.057,0.159-0.075c0.082-0.028,0.16-0.065,0.232-0.113c0.061-0.04,0.122-0.069,0.182-0.098   c0.096-0.049,0.193-0.097,0.289-0.155c0.096-0.039,0.191-0.085,0.287-0.133c0.053-0.027,0.105-0.056,0.159-0.075   c0.042-0.014,0.083-0.031,0.123-0.051l0.208-0.097c0.197-0.089,0.366-0.17,0.534-0.283c0.05-0.031,0.108-0.051,0.163-0.075   c0.121-0.052,0.242-0.106,0.353-0.169c0.221-0.084,0.465-0.206,0.676-0.339l1.258-0.54c0.035-0.014,0.069-0.032,0.101-0.05   c0.473-0.262,0.971-0.492,1.732-0.801l0.126-0.063c0.422-0.211,0.85-0.404,1.279-0.6l9.36,18.659   c0.165,0.331,0.503,0.54,0.873,0.54c0.001,0,0.001,0,0.001,0c0.37,0,0.708-0.208,0.874-0.539l9.395-18.667l2.226,1.002   c14.108,6.46,18.051,9.877,19.528,11.158c0.761,0.672,1.514,2.019,2.294,4.11C74.674,88.615,62.513,93.043,49.968,93.043z"/></g></svg>