<svg xmlns="http://www.w3.org/2000/svg" data-name="Layer 1" viewBox="0 0 100 125" x="0px" y="0px"><title>update 5 mei</title><path d="M82.94,27A17.79,17.79,0,0,0,71.1,18.35a18,18,0,0,0-20,9.88A18.3,18.3,0,0,0,50,31.4h0a18.3,18.3,0,0,0-1.13-3.17,18,18,0,0,0-20-9.88A17.92,17.92,0,0,0,17.11,44.8h0l.12.2.15.24c.18.29.36.57.55.85l.3.42q.25.34.52.67l.34.41c.19.22.39.44.6.65l.32.34c.23.23.47.45.72.67h0l.71.67a11.49,11.49,0,0,1,2.93,4.39h0v0h0v0a10.09,10.09,0,0,1,.38,5.29l-.2,1h0a17.9,17.9,0,0,0,21.33,21,18.92,18.92,0,0,0,2-.55A18.11,18.11,0,0,0,50,80.23h0a18.12,18.12,0,0,0,2.09.87,18.92,18.92,0,0,0,2,.55,17.9,17.9,0,0,0,21.33-21h0l-.2-1a10.09,10.09,0,0,1,.38-5.29v0h0v0h0a11.49,11.49,0,0,1,2.93-4.39l.71-.67h0c.25-.22.49-.44.72-.67l.32-.34c.2-.21.41-.43.6-.65l.34-.41q.27-.33.52-.67l.3-.42c.19-.28.37-.56.55-.85l.15-.24.12-.2h0a17.9,17.9,0,0,0,0-17.77Zm-8.23-5.21A7.74,7.74,0,0,1,76,23.45c1.77,2.89,2.27,7.15,1.46,11.67a24.45,24.45,0,0,0-4.12-2.75C74.4,28.35,75,24.41,74.71,21.83ZM39.53,43.18h0c0-.2-.09-.41-.13-.61,1.29-.35,2.55-.65,3.74-.89A18.76,18.76,0,0,0,47,53.15c-1.1.53-2.28,1.05-3.53,1.56l-.16-.34A45.6,45.6,0,0,1,39.53,43.18Zm2.38,12.14c-1.37.52-2.79,1-4.25,1.46L37,57c0-.15-.07-.31-.1-.45a47.44,47.44,0,0,0-4-11.63l-.1-.2c1.37-.52,2.79-1,4.25-1.46l.61-.18c0,.15.07.31.1.45a47.44,47.44,0,0,0,4,11.63ZM39.05,40.91a71.4,71.4,0,0,0-2.53-8.45c-.17-.46-.35-.94-.54-1.41a21.89,21.89,0,0,1,5.1-.16l0,.11a25.7,25.7,0,0,1,2,9C41.85,40.21,40.47,40.53,39.05,40.91Zm-1.64.46-.76.22c-1.54.47-3,1-4.48,1.54-.87-1.93-1.71-4.06-2.45-6.27-.42-1.26-.79-2.45-1.11-3.58a26.71,26.71,0,0,1,4.59-1.68l1.08-.25c.22.55.43,1.11.65,1.69A69.31,69.31,0,0,1,37.42,41.37ZM30.6,43.76c-1.35.55-2.63,1.12-3.81,1.7A25.27,25.27,0,0,1,23.5,39c-.22-.65-.4-1.29-.57-1.94a22.35,22.35,0,0,1,4.16-3c.32,1.13.66,2.25,1,3.33C28.87,39.64,29.71,41.79,30.6,43.76Zm.73,1.53.16.34a45.6,45.6,0,0,1,3.8,11.19c0,.2.09.41.13.61-1.29.35-2.55.65-3.74.89a18.76,18.76,0,0,0-3.88-11.46C28.89,46.32,30.07,45.8,31.32,45.29Zm4.44,13.8a71.41,71.41,0,0,0,2.53,8.45c.17.46.35.94.54,1.41a21.89,21.89,0,0,1-5.1.16l0-.11a25.7,25.7,0,0,1-2-9C33,59.79,34.34,59.47,35.76,59.09Zm1.64-.46.76-.22L40,57.81q1.35-.45,2.64-.94c.87,1.93,1.71,4.06,2.45,6.27.42,1.26.79,2.45,1.11,3.58a26.63,26.63,0,0,1-4.59,1.68l-1.08.25c-.22-.55-.43-1.11-.65-1.69A69.31,69.31,0,0,1,37.4,58.63Zm6.82-2.38c1.35-.55,2.63-1.12,3.81-1.71A25.27,25.27,0,0,1,51.32,61c.22.65.4,1.29.57,1.94a22.36,22.36,0,0,1-4.16,3c-.32-1.13-.66-2.25-1-3.33C45.95,60.36,45.11,58.2,44.22,56.24Zm5.35-2.5a29,29,0,0,0,3.16-1.95h0c.29.25.57.51.85.78l.29.3c.18.19.36.37.52.57l.31.37.44.56.28.39q.22.31.42.63l.16.25a9.93,9.93,0,0,1-2.74,5.92c-.11-.36-.22-.72-.34-1.08A27.16,27.16,0,0,0,49.57,53.75Zm8.75,2.64c-.19-.4-.39-.8-.61-1.19C57.93,55.58,58.13,56,58.32,56.38Zm5-14.79-.76-.22A69.31,69.31,0,0,1,65.07,33c.21-.58.43-1.14.65-1.69l1.08.25a26.71,26.71,0,0,1,4.59,1.68c-.32,1.13-.68,2.32-1.11,3.58-.74,2.2-1.58,4.34-2.45,6.27C66.38,42.59,64.88,42.07,63.34,41.6Zm3.75,3.08-.1.2a47.44,47.44,0,0,0-4,11.63c0,.15-.07.3-.1.45l-.61-.18c-1.46-.45-2.88-.94-4.25-1.46l.1-.2a47.44,47.44,0,0,0,4-11.63c0-.15.07-.3.1-.45l.61.18C64.3,43.67,65.73,44.16,67.09,44.67ZM63.47,32.46a71.4,71.4,0,0,0-2.53,8.45c-1.42-.38-2.79-.7-4.09-1a25.7,25.7,0,0,1,2-9l0-.11a21.89,21.89,0,0,1,5.1.16C63.82,31.53,63.64,32,63.47,32.46ZM60.6,42.57c0,.2-.09.41-.13.61h0A45.56,45.56,0,0,1,56.89,53.9l-.3-.41q-.25-.34-.52-.67l-.34-.41c-.19-.22-.39-.44-.6-.66l-.32-.33L54.37,51a18.39,18.39,0,0,0,2.48-9.32C58,41.92,59.31,42.22,60.6,42.57Zm-6.83,21a14,14,0,0,0,3.48-5.42c.11.27.21.54.3.81a16.24,16.24,0,0,1-4.67,17.38C54.49,72.92,54.8,68.3,53.76,63.55Zm4,9.42c-.21.38-.45.74-.69,1.09C57.31,73.7,57.54,73.34,57.76,73Zm.65-1.27-.12.26Zm.75-13.3c-.12-.35-.27-.69-.41-1l1.25.45,1.84.59.76.22A69.32,69.32,0,0,1,60.12,67c-.18.49-.36,1-.54,1.41h0A17.94,17.94,0,0,0,59.16,58.4Zm-.3,12.24-.08.2Zm2.85-3.1a71.4,71.4,0,0,0,2.53-8.45c1.42.38,2.79.7,4.09,1a25.7,25.7,0,0,1-2,9l0,.11a21.89,21.89,0,0,1-5.1-.16C61.36,68.47,61.54,68,61.71,67.54Zm2.88-10.11c0-.2.09-.41.13-.61a45.6,45.6,0,0,1,3.8-11.19l.16-.34c1.25.51,2.43,1,3.53,1.56a18.76,18.76,0,0,0-3.88,11.46C67.14,58.08,65.88,57.78,64.59,57.43ZM69.4,43.76c.88-2,1.73-4.12,2.48-6.35.36-1.08.71-2.2,1-3.33a22.35,22.35,0,0,1,4.16,3c-.17.64-.35,1.29-.57,1.94a25.27,25.27,0,0,1-3.28,6.5C72,44.88,70.76,44.31,69.4,43.76Zm3-23.26h.09a.24.24,0,0,1,.09.08c.71.87.77,4.81-.8,11A28.74,28.74,0,0,0,67.22,30l-.85-.2C68.89,23.88,71.4,20.62,72.44,20.49ZM70,20.24c-1.84,1.93-3.74,5.53-5.28,9.19a24.18,24.18,0,0,0-4.92-.31C62.34,24.12,66.34,20.65,70,20.24ZM52.66,28.95a16.28,16.28,0,0,1,13.57-9.26c-3.27,1.7-6.38,5.14-8.46,9.61a14.09,14.09,0,0,0-6.06,2.21A16.81,16.81,0,0,1,52.66,28.95ZM51.2,34.23A10,10,0,0,1,57,31.18a27.25,27.25,0,0,0-1.8,8.48,29,29,0,0,0-3.69-.35A16,16,0,0,1,51.2,34.23Zm-.06,12v0h0A11.85,11.85,0,0,0,51.78,41a29.78,29.78,0,0,1,3.38.37c0,.07,0,.14,0,.21a16.49,16.49,0,0,1-2,8.22,11.62,11.62,0,0,1-2.19-3l.15-.39Zm-.91-6.93c.08-.41.14-.82.19-1.23C50.38,38.49,50.32,38.9,50.24,39.31Zm.24-1.64c0-.28,0-.57.07-.85Q50.52,37.25,50.47,37.67Zm.09-1.31c0-.35,0-.71,0-1.06Q50.58,35.83,50.57,36.36Zm0-1.79q0-.19,0-.39C50.5,34.31,50.51,34.44,50.52,34.57Zm-.46,5.74c0,.14,0,.29-.06.44a10,10,0,0,1,0,3A10.06,10.06,0,0,1,50.06,40.31Zm.1,4.29c-.07-.27-.11-.55-.16-.83C50,44.05,50.09,44.33,50.16,44.6Zm-1,2.42,0,.07c.1.24.22.47.34.7h0a13,13,0,0,0,1.39,2.14v0c.17.22.35.43.54.64l0,0a28.83,28.83,0,0,1-2.94,1.77,17,17,0,0,1-3.72-10.78c0-.07,0-.14,0-.21A29.79,29.79,0,0,1,48.22,41a11.85,11.85,0,0,0,.62,5.19h0v0l.06.14C49,46.6,49.07,46.81,49.16,47Zm-.65-7.71a29,29,0,0,0-3.69.35A27.25,27.25,0,0,0,43,31.18a10,10,0,0,1,5.77,3.05A16,16,0,0,1,48.51,39.31ZM47.34,28.95a16.81,16.81,0,0,1,1,2.57,14.09,14.09,0,0,0-6.06-2.21c-2.09-4.48-5.19-7.91-8.46-9.61A16.28,16.28,0,0,1,47.34,28.95Zm-7.08.18a24.18,24.18,0,0,0-4.92.31c-1.54-3.66-3.44-7.26-5.28-9.19C33.66,20.65,37.66,24.12,40.25,29.13ZM27.38,20.58a.24.24,0,0,1,.09-.08h.09c1,.13,3.55,3.39,6.07,9.28l-.85.2a28.74,28.74,0,0,0-4.61,1.64C26.6,25.39,26.66,21.45,27.38,20.58ZM24,23.45a7.74,7.74,0,0,1,1.32-1.62c-.29,2.58.31,6.52,1.34,10.54a24.44,24.44,0,0,0-4.12,2.75C21.71,30.6,22.2,26.35,24,23.45Zm-6.4,18.42c-.11-.27-.21-.54-.3-.81a16.22,16.22,0,0,1,4.66-17.37c-1.6,3.4-1.91,8-.88,12.77A14,14,0,0,0,17.57,41.88Zm4.5,6.31c-.29-.25-.57-.51-.85-.78l-.28-.3c-.18-.19-.36-.37-.53-.57l-.31-.37-.45-.57-.28-.39q-.22-.31-.42-.63l-.16-.25a9.93,9.93,0,0,1,2.74-5.92c.11.36.22.72.34,1.08a27.16,27.16,0,0,0,3.36,6.75,29,29,0,0,0-3.16,1.95ZM25.65,53l0-.07c-.1-.24-.22-.47-.34-.7h0a13,13,0,0,0-1.39-2.14v0q-.26-.32-.54-.64l0,0a28.78,28.78,0,0,1,2.94-1.77A17,17,0,0,1,30,58.41c0,.07,0,.14,0,.21A29.79,29.79,0,0,1,26.6,59,11.85,11.85,0,0,0,26,53.8h0v0l-.06-.14C25.83,53.4,25.75,53.19,25.65,53Zm.65,7.71A29,29,0,0,0,30,60.34a27.25,27.25,0,0,0,1.8,8.48A10,10,0,0,1,26,65.77,16,16,0,0,1,26.31,60.69Zm1.17,10.36a16.82,16.82,0,0,1-1-2.57,14.08,14.08,0,0,0,6.06,2.21c2.09,4.48,5.19,7.91,8.46,9.61A16.28,16.28,0,0,1,27.48,71.05Zm7.08-.18a24.17,24.17,0,0,0,4.92-.31c1.54,3.66,3.44,7.26,5.28,9.19C41.15,79.35,37.16,75.88,34.57,70.87Zm12.88,8.55a.24.24,0,0,1-.07.06l-.07,0h0c-1-.13-3.55-3.39-6.07-9.28L42,70q1-.25,1.89-.57a28.44,28.44,0,0,0,2.71-1.08C48.21,74.61,48.15,78.55,47.44,79.42Zm.74-11.79a24.45,24.45,0,0,0,4.11-2.76c.81,4.52.31,8.78-1.46,11.68a7.73,7.73,0,0,1-1.32,1.62C49.82,75.59,49.21,71.65,48.19,67.63Zm3,12,.55-.34Zm1.59-.13h0l-.07,0a.24.24,0,0,1-.07-.06,1.54,1.54,0,0,1-.24-.51h0a17.66,17.66,0,0,0,4.37-4.3C55,77.72,53.48,79.41,52.74,79.51Zm2.49.25c1.84-1.93,3.74-5.53,5.28-9.19a24.17,24.17,0,0,0,4.92.31C62.84,75.88,58.85,79.35,55.23,79.76Zm17.29-8.71A16.28,16.28,0,0,1,59,80.31c3.27-1.7,6.38-5.14,8.46-9.61a14.08,14.08,0,0,0,6.06-2.21A16.81,16.81,0,0,1,72.52,71.05ZM74,65.77a10,10,0,0,1-5.77,3.05A27.25,27.25,0,0,0,70,60.34a29,29,0,0,0,3.69.35A16,16,0,0,1,74,65.77Zm2.68-16.34c-.19.21-.37.42-.54.64v0a13,13,0,0,0-1.39,2.14h0c-.12.23-.23.47-.34.7l0,.07c-.09.21-.17.42-.25.63l-.06.14v0h0A11.85,11.85,0,0,0,73.4,59,29.8,29.8,0,0,1,70,58.62c0-.07,0-.14,0-.21a17,17,0,0,1,3.72-10.78,28.77,28.77,0,0,1,2.94,1.77ZM81,44.59q-.2.32-.42.63l-.28.39-.45.57-.31.37c-.17.19-.35.38-.53.57l-.28.3c-.27.27-.55.53-.85.78h0a29,29,0,0,0-3.16-1.95,27.16,27.16,0,0,0,3.36-6.75c.12-.36.23-.72.34-1.08a9.93,9.93,0,0,1,2.74,5.92Zm1.7-3.53c-.09.28-.2.54-.3.81a14,14,0,0,0-3.48-5.41c1-4.76.73-9.37-.88-12.77a16.22,16.22,0,0,1,4.66,17.37Z"/><text x="0" y="115" fill="#000000" font-size="5px" font-weight="bold" font-family="'Helvetica Neue', Helvetica, Arial-Unicode, Arial, Sans-serif">Created by Edwin Prayogi M</text><text x="0" y="120" fill="#000000" font-size="5px" font-weight="bold" font-family="'Helvetica Neue', Helvetica, Arial-Unicode, Arial, Sans-serif">from the Noun Project</text></svg>