<?xml version="1.0" encoding="iso-8859-1"?>
<!-- Generator: Adobe Illustrator 19.0.0, SVG Export Plug-In . SVG Version: 6.00 Build 0)  -->
<svg version="1.1" id="Capa_1" xmlns="http://www.w3.org/2000/svg" xmlns:xlink="http://www.w3.org/1999/xlink" x="0px" y="0px"
	 viewBox="0 0 512 512" style="enable-background:new 0 0 512 512;" xml:space="preserve">
<g>
	<g>
		<path d="M437.02,74.98C388.667,26.629,324.38,0,256,0S123.333,26.629,74.98,74.98C26.629,123.333,0,187.62,0,256
			s26.629,132.667,74.98,181.02C123.333,485.371,187.62,512,256,512s132.667-26.629,181.02-74.98
			C485.371,388.667,512,324.38,512,256S485.371,123.333,437.02,74.98z M256,482C131.383,482,30,380.617,30,256
			c0-66.422,28.808-126.239,74.58-167.626l6.882,19.671c8.483,24.249,27.117,43.401,51.125,52.547
			c24.985,9.518,39.447,34.999,36.198,60.49c-30.739-16.836-71.162-4.339-94.236,28.116C80.876,250.442,62,270.093,62,294.068
			C62,318.844,82.156,339,106.932,339h20.637c0.89,15.568,6.6,30.847,16.985,43.442C160.043,401.227,182.891,412,207.238,412
			c40.794,0,81.578-9.771,117.942-28.256c22.825-11.603,41.967-29.271,55.354-51.097c13.279-21.646,20.35-46.484,20.465-71.87
			c13.656-16.19,20.733-36.763,19.94-58.014c-1.67-44.78-38.071-81.739-82.897-81.739C285.25,121.024,251,163,251,206
			c0,6.927,0.853,13.655,2.423,20.105c-9.804,3.281-20.172,8.75-29.008,16.347c15.406-44.161-7.245-93.169-51.149-109.894
			c-15.726-5.991-27.931-18.536-33.487-34.419l-10.264-29.34C165.633,44.316,209.176,30,256,30c124.617,0,226,101.383,226,226
			S380.617,482,256,482z M213.705,322.415c2.036,2.342,4.315,4.504,6.862,6.447c10.694,8.16,25.117,12.243,43.126,12.243
			c14.214,0,30.664-2.545,49.268-7.638l-7.922-28.936c-44.438,12.166-61.152,4.389-66.274,0.48
			c-2.884-2.201-6.719-6.293-6.719-16.382c0-19.311,20.344-31.146,33.665-34.893C281.023,276.211,306.815,291,336,291v-30
			c-30.327,0-55-24.673-55-55c0-28.25,21.75-54.984,56.335-54.984c28.998,0,52.546,23.903,53.626,52.865
			c0.519,13.918-4.165,27.378-13.188,37.899c-4.367,5.09-6.772,11.614-6.772,18.368c0,41.111-22.767,78.223-59.414,96.853
			c-32.174,16.355-68.256,25-104.348,25c-15.357,0-29.768-6.795-39.538-18.644c-12.169-14.758-13.67-35.657-3.734-52.002
			l8.852-14.563l-25.636-15.582l-8.852,14.563c-2.582,4.248-4.699,8.679-6.359,13.228h-25.039C98.698,309,92,302.301,92,294.068
			c0-8.233,6.698-14.932,14.932-14.932h14.492l4.33-7.5c13.877-24.036,40.448-34.768,59.23-23.924
			c8.64,4.988,14.471,13.984,16.42,25.331c2.125,12.372-0.547,25.841-7.524,37.926L213.705,322.415z"/>
	</g>
</g>
<g>
</g>
<g>
</g>
<g>
</g>
<g>
</g>
<g>
</g>
<g>
</g>
<g>
</g>
<g>
</g>
<g>
</g>
<g>
</g>
<g>
</g>
<g>
</g>
<g>
</g>
<g>
</g>
<g>
</g>
</svg>
