<svg xmlns="http://www.w3.org/2000/svg" xmlns:xlink="http://www.w3.org/1999/xlink" version="1.1" x="0px" y="0px" viewBox="0 0 100 125" style="enable-background:new 0 0 100 100;" xml:space="preserve"><path d="M78.5,36.5c-1.4-2.2-3.4-3-4.6-3.3c0-0.3-0.1-0.6-0.1-1c-0.5-3.6-3.2-5.8-8.1-6.6  c-0.2-0.6-0.5-1.1-0.8-1.6c-1.8-2.6-5.2-3.6-9.9-2.8c-1.2-1.2-2.8-1.8-4.7-1.8l-2.1,0c-1.9,0-3.4,0.6-4.6,1.8  c-4.7-0.7-8.1,0.2-9.9,2.8c-0.3,0.5-0.6,1-0.8,1.6c-4.8,0.8-7.6,3-8.1,6.6c0,0.3-0.1,0.6-0.1,1c-1.2,0.3-3.2,1.1-4.6,3.3  c-2,3.3-1.6,8.4,1.2,15.1c3.3,7.9,11.3,13.8,17.9,17.5l-0.7,0.7c-1.2,1.3-1.8,2.9-1.6,4.5c0.1,1.7,0.9,3.3,2.2,4.4  c0.8,0.7,1.9,1,2.9,1c1.1,0,2.2-0.4,3.1-1.1l0.2-0.2c2.3-1.9,5.6-1.9,7.8,0.1c1.7,1.5,4.3,1.6,6.1,0.2c1.3-1.1,2.1-2.7,2.2-4.3  c0.1-1.7-0.5-3.3-1.6-4.5l-0.6-0.7c6.5-3.7,14.6-9.7,18-17.6C80.1,44.9,80.5,39.9,78.5,36.5z M59.5,74.3c-0.1,1.1-0.6,2.2-1.5,2.9  c-1,0.8-2.5,0.8-3.5-0.1c-3-2.6-7.4-2.6-10.4-0.1l-0.2,0.2c-1,0.9-2.5,0.9-3.4,0.1c-0.9-0.7-1.4-1.8-1.5-3c-0.1-1.1,0.3-2.2,1.1-3  l1-1.1c4.3,2.3,7.6,3.5,7.9,3.6c0,0,0,0,0,0c0.1,0,0.2,0.1,0.3,0.1s0.2,0,0.3-0.1c0,0,0,0,0,0c0.3-0.1,3.6-1.3,7.8-3.6l0.9,1  C59.4,72.4,59.5,73.5,59.5,74.3z M75.4,50.9C70.2,63.2,52,70.8,49.3,71.8c-2.7-1.1-20.8-8.6-26.1-20.9c-2.5-6-3-10.6-1.4-13.3  c0.8-1.4,2-2,2.9-2.3c0.5,12.5,13.7,25.4,14.3,26c0.2,0.2,0.4,0.3,0.7,0.3c0.3,0,0.5-0.1,0.7-0.3c0.4-0.4,0.4-1,0-1.4  c-0.2-0.1-15.3-15-13.5-27.3c0.3-2.4,2.2-4,5.5-4.7c-1.6,10.7,9.8,30.3,10.4,31.2c0.2,0.3,0.5,0.5,0.9,0.5c0.2,0,0.3,0,0.5-0.1  c0.5-0.3,0.6-0.9,0.4-1.4c-4.1-6.9-13.6-26.3-9.1-32.8c1.2-1.8,3.6-2.5,6.9-2.2c-4.8,9.2,3.6,33.8,4,34.9c0.1,0.4,0.5,0.7,0.9,0.7  c0.1,0,0.2,0,0.3-0.1c0.5-0.2,0.8-0.7,0.6-1.3c-2.5-7.3-8.1-27.8-3.7-34c0.9-1.2,2.1-1.8,3.7-1.8l2.1,0c1.7,0,2.9,0.6,3.8,1.8  c4.5,6.2-1.1,26.7-3.7,34.1c-0.2,0.5,0.1,1.1,0.6,1.3c0.5,0.2,1.1-0.1,1.3-0.6c0.4-1.1,8.8-25.7,4-34.9c3.4-0.3,5.7,0.4,6.9,2.2  c4.5,6.5-5,25.9-9.1,32.8c-0.3,0.5-0.1,1.1,0.4,1.4c0.2,0.1,0.3,0.1,0.5,0.1c0.3,0,0.7-0.2,0.9-0.5c0.5-0.9,11.9-20.6,10.4-31.2  c3.4,0.7,5.2,2.3,5.5,4.7c1.7,12.3-13.4,27.2-13.5,27.3c-0.4,0.4-0.4,1,0,1.4c0.2,0.2,0.5,0.3,0.7,0.3c0.3,0,0.5-0.1,0.7-0.3  c0.6-0.6,13.8-13.5,14.3-26c0.8,0.3,2,0.9,2.8,2.2C78.4,40.3,78,44.9,75.4,50.9z"/><circle cx="47.7" cy="25" r="1.9"/><circle cx="53" cy="28.5" r="1"/><circle cx="60.7" cy="33" r="1"/><circle cx="46" cy="33" r="0.6"/><circle cx="39.1" cy="26.2" r="0.8"/><circle cx="37.1" cy="31.5" r="0.7"/><circle cx="73.1" cy="47.2" r="0.7"/><circle cx="70" cy="33.5" r="0.7"/><circle cx="29.9" cy="32.7" r="1.5"/><circle cx="30.8" cy="39.1" r="0.9"/><circle cx="24" cy="40.8" r="0.8"/><circle cx="24.1" cy="46.8" r="1.5"/><circle cx="75.7" cy="41.2" r="1.5"/><circle cx="61.2" cy="26.6" r="1.5"/></svg>