<svg xmlns="http://www.w3.org/2000/svg" xmlns:xlink="http://www.w3.org/1999/xlink" version="1.1" x="0px" y="0px" viewBox="0 0 100 125" enable-background="new 0 0 100 100" xml:space="preserve"><path fill-rule="evenodd" clip-rule="evenodd" d="M18.399,73.52c1.012,0.135,1.518,0.337,1.518,0.606  c0,0.472-1.028,0.741-3.084,0.809c-1.989,0-3.405-0.135-4.248-0.404l-0.657-0.404l0.657-0.354c0.843-0.27,2.259-0.404,4.248-0.404  C16.866,73.368,17.389,73.419,18.399,73.52z M10.26,58.154c1.786,0,3.05,0.135,3.792,0.404c0.404,0.102,0.606,0.219,0.606,0.354  s-0.202,0.27-0.606,0.404c-0.742,0.271-2.006,0.405-3.792,0.405c-1.854-0.067-2.781-0.337-2.781-0.81  c0-0.27,0.455-0.472,1.365-0.606C9.282,58.238,9.754,58.188,10.26,58.154z M78.669,79.028c0.371-0.066,0.742-0.118,1.112-0.151  c1.449,0,2.478,0.135,3.084,0.404c0.338,0.135,0.506,0.271,0.506,0.405c-0.033,0.135-0.202,0.269-0.506,0.403  c-0.606,0.27-1.635,0.404-3.084,0.404c-1.482-0.067-2.225-0.337-2.225-0.808C77.557,79.383,77.928,79.163,78.669,79.028z   M47.574,48.45c0.135,0.101,0.05,0.472-0.253,1.112c-0.169,0.37-0.522,1.044-1.062,2.021l-1.618,3.032  c-0.944,1.955-1.686,3.791-2.226,5.51c-0.303,0.943-0.572,1.971-0.809,3.083c-0.202,0.909-0.37,1.381-0.505,1.415  c-0.136-0.034-0.22-0.539-0.253-1.517c-0.102-2.763,0.69-5.846,2.376-9.249l1.163-1.971l0.759-1.011  C46.461,49.09,47.271,48.281,47.574,48.45z M89.843,56.891c0.405-0.066,0.81-0.118,1.214-0.151c1.585,0,2.713,0.135,3.388,0.404  c0.337,0.135,0.522,0.27,0.556,0.404c-0.101,0.505-1.415,0.758-3.943,0.758c-1.618-0.067-2.427-0.319-2.427-0.758  C88.63,57.245,89.034,57.025,89.843,56.891z M93.888,51.988c-0.135,0.067-0.775,0.169-1.921,0.304  c-1.618,0.168-2.933,0.286-3.943,0.354c-2.528,0.202-4.972,0.27-7.332,0.202l-2.478-0.102c-0.101,0-0.556-0.051-1.364-0.151  l-1.365-0.202c-0.944-0.135-1.939-0.235-2.983-0.304c-0.506-0.033-1.012-0.033-1.518,0l-0.758,0.051l-0.557,0.152l-0.151,0.201  l-0.051,0.152l0.051,0.202c0.101,0.438,0.286,0.994,0.556,1.668l1.567,3.639c0.405,0.876,0.691,1.567,0.86,2.072l1.062,4.701  c0.169,1.28,0.235,2.123,0.202,2.527c0,0.134,0.017,0.269,0.051,0.403c0.235-0.067,0.539-0.117,0.91-0.151  c0.641-0.067,1.298-0.118,1.972-0.151c2.461,0,4.214,0.135,5.259,0.404c0.539,0.102,0.826,0.219,0.859,0.354  c-0.033,0.135-0.32,0.27-0.859,0.404c-1.045,0.27-2.798,0.404-5.259,0.404c-1.281-0.033-2.241-0.118-2.882-0.253  c-0.067,3.336-0.843,6.537-2.326,9.604c-1.854,3.909-4.77,7.109-8.747,9.604c-2.394,1.448-4.618,2.426-6.674,2.932  c-0.067,0.033-1.314,0.286-3.741,0.758l-1.973,0.102c-0.438,0.033-1.112,0.017-2.022-0.051c-2.798-0.067-5.494-0.674-8.09-1.82  c-2.225-0.942-4.213-2.189-5.966-3.739c-0.27,0.337-1.382,0.539-3.338,0.606c-2.224,0-3.792-0.135-4.702-0.404l-0.758-0.404  l0.758-0.404c0.944-0.27,2.512-0.404,4.702-0.404c0.034,0,0.607,0.05,1.72,0.151c0.371,0.033,0.674,0.084,0.91,0.151  c-0.202-0.202-0.404-0.404-0.607-0.606c-0.74-0.741-1.415-1.583-2.022-2.527c-1.482-2.123-2.493-4.38-3.033-6.772  c-0.371-1.887-0.539-3.487-0.506-4.802c-0.033-0.202,0-1.078,0.102-2.628c0.101-0.775,0.169-1.247,0.202-1.415l0.455-1.365  c0.978-2.224,1.702-3.892,2.175-5.004l0.96-2.477c0.304-0.977,0.455-1.752,0.455-2.325c0.067-0.472-0.219-0.926-0.859-1.364  c-0.607-0.337-1.332-0.539-2.174-0.606l-5.31-0.354c-3.775-0.404-6.876-0.624-9.304-0.657c-1.752-0.034-3-0.067-3.741-0.102  l-2.831,0.051c-1.686,0.101-2.528,0.084-2.528-0.051c-0.033-0.135,0.775-0.37,2.427-0.707l2.882-0.404  c0.742-0.034,2.006-0.102,3.792-0.203c2.697-0.101,5.849-0.017,9.455,0.253l2.528,0.102c1.551,0,2.495,0.017,2.831,0.051  c1.146,0.067,2.157,0.337,3.034,0.809c1.281,0.774,1.938,1.803,1.972,3.083c0.034,0.708-0.135,1.752-0.505,3.134l-0.961,2.679  c-0.472,1.146-1.146,2.779-2.022,4.902l-0.354,1.112c0,0.033-0.051,0.404-0.152,1.112c0,0.538-0.017,1.313-0.051,2.324  c0,1.382,0.169,2.797,0.506,4.246c0.472,1.954,1.365,3.926,2.68,5.913c0.606,0.91,1.197,1.635,1.77,2.174  c1.854,1.954,4.012,3.453,6.472,4.498c0.371,0.135,0.961,0.354,1.77,0.657l1.821,0.506c1.819,0.303,3.033,0.454,3.641,0.454  l3.539-0.05c0.775-0.169,1.904-0.404,3.387-0.708c1.753-0.404,3.759-1.264,6.018-2.578c3.572-2.224,6.202-5.088,7.887-8.592  c1.552-3.167,2.275-6.47,2.175-9.907l-0.152-2.324c-0.033-0.27-0.168-0.994-0.404-2.174l-0.505-2.122l-2.275-5.712  c-0.27-0.909-0.438-1.584-0.506-2.021c-0.135-0.606-0.084-1.096,0.151-1.466l0.506-0.556c0.135-0.068,0.337-0.186,0.606-0.354  c0.404-0.168,1.096-0.286,2.073-0.354c0.405,0,0.978,0.033,1.719,0.102c1.079,0.101,2.107,0.252,3.085,0.455l2.022,0.404  l3.034,0.252c2.427,0.202,4.819,0.304,7.179,0.304l3.894,0.051C93.112,51.921,93.753,51.954,93.888,51.988z M70.983,16.507  c0.169-0.27,0.338-0.505,0.506-0.708c-0.472,0.438-0.943,0.877-1.416,1.314c-5.089,4.785-7.87,7.413-8.342,7.885  c-0.473,0.438-1.989,1.988-4.551,4.65l-4.399,5.003c-6.303,7.886-10.668,14.877-13.095,20.976c-1.112,2.595-1.904,5.24-2.377,7.936  c-0.202,1.348-0.337,2.511-0.404,3.488c-0.135,3.402,0.404,6.587,1.618,9.552l0.708,1.567l0.303,0.505  c0.236,0.438,0.658,1.028,1.265,1.77c0.978,1.078,2.106,1.921,3.388,2.527c2.461,1.213,5.174,1.6,8.141,1.162  c2.662-0.337,5.056-1.331,7.179-2.982c3.506-2.561,5.226-6.772,5.157-12.636c0-1.887-0.168-4.11-0.505-6.672  c-0.438-2.83-0.742-4.937-0.91-6.317c-0.034-0.337-0.102-1.364-0.202-3.083l-0.102-2.932c0-2.46,0.034-4.279,0.102-5.459  c0.135-3.269,0.421-6.436,0.859-9.502c0.708-4.549,2.208-9.115,4.5-13.697l1.314-2.324C70.395,17.417,70.815,16.742,70.983,16.507z   M73.866,13.879c-0.203,0.27-0.877,1.364-2.022,3.285c-0.473,0.876-0.843,1.55-1.113,2.021l-1.213,2.376l-2.225,5.862  c-0.742,2.225-1.281,4.718-1.618,7.48c-0.303,2.831-0.506,5.947-0.606,9.351l0.151,8.188c0.067,1.55,0.152,2.527,0.253,2.932  c0.202,1.314,0.522,3.402,0.961,6.268c0.37,2.628,0.573,4.953,0.606,6.975c0.067,2.864-0.303,5.425-1.112,7.683  c-0.877,2.729-2.528,5.037-4.955,6.925c-2.427,1.853-5.225,3.015-8.393,3.486c-3.506,0.473-6.708,0-9.607-1.415  c-1.651-0.809-3.033-1.854-4.146-3.134c-0.742-0.842-1.265-1.583-1.568-2.224c-0.235-0.337-0.438-0.725-0.606-1.162l-0.556-1.213  c-1.383-3.235-1.989-6.773-1.82-10.614l0.506-3.842c0.438-2.662,1.297-5.492,2.578-8.491c1.416-3.369,3.32-6.874,5.713-10.513  c0.641-1.011,1.905-2.83,3.793-5.459c0.472-0.606,1.163-1.516,2.073-2.729l2.174-2.628c4.551-5.324,10.567-11.068,18.051-17.235  c1.18-0.978,3.202-2.746,6.067-5.307c0.809-0.775,1.415-1.331,1.819-1.668c0.607-0.573,0.961-0.893,1.063-0.961l-1.416,1.921  c-0.506,0.573-0.91,1.078-1.213,1.517L73.866,13.879z"/></svg>