<?xml version="1.0" encoding="iso-8859-1"?>
<!-- Generator: Adobe Illustrator 19.0.0, SVG Export Plug-In . SVG Version: 6.00 Build 0)  -->
<svg version="1.1" id="Capa_1" xmlns="http://www.w3.org/2000/svg" xmlns:xlink="http://www.w3.org/1999/xlink" x="0px" y="0px"
	 viewBox="0 0 512 512" style="enable-background:new 0 0 512 512;" xml:space="preserve">
<g>
	<g>
		<path d="M490.251,71.161c-16.963-19.608-41.561-30.854-67.488-30.854H288.125v-8.669c0-13.215-10.751-23.966-23.966-23.966
			h-16.317c-13.215,0-23.966,10.751-23.966,23.966v8.669H89.237c-25.927,0-50.525,11.246-67.488,30.854
			C4.788,90.768-2.8,116.729,0.931,142.387l41.534,285.551c3.085,21.212,13.713,40.617,29.925,54.641
			c16.211,14.025,36.946,21.748,58.381,21.748h178.26c4.225,0,7.649-3.424,7.649-7.649c0-4.225-3.424-7.649-7.649-7.649h-178.26
			c-36.464,0-67.919-27.211-73.167-63.293L16.07,140.186c-3.092-21.259,3.195-42.769,17.249-59.016
			c14.054-16.247,34.436-25.564,55.918-25.564h333.526c21.482,0,41.864,9.318,55.918,25.564
			c14.054,16.246,20.341,37.757,17.249,59.016l-41.534,285.549c-5.248,36.084-36.703,63.294-73.167,63.294h-36.505
			c-4.225,0-7.649,3.424-7.649,7.649c0,4.225,3.424,7.649,7.649,7.649h36.505c21.436,0,42.17-7.723,58.381-21.748
			c16.211-14.024,26.839-33.429,29.925-54.642l41.534-285.55C514.8,116.729,507.212,90.768,490.251,71.161z M272.827,40.307h-33.654
			v-8.669c0-4.78,3.889-8.669,8.669-8.669h16.317c4.78,0,8.669,3.889,8.669,8.669V40.307z"/>
	</g>
</g>
<g>
	<g>
		<path d="M398.669,137.779c-45.304-18.662-93.304-28.124-142.668-28.124c-49.369,0-97.372,9.463-142.676,28.128
			c-3.906,1.609-5.768,6.08-4.159,9.985l31.077,75.435c1.587,3.853,6.127,5.748,9.985,4.159
			c33.543-13.818,69.13-20.824,105.774-20.824c36.642,0,72.227,7.005,105.768,20.822c1.873,0.773,3.978,0.768,5.852-0.011
			c1.872-0.78,3.358-2.272,4.131-4.148l31.075-75.437C404.417,143.908,402.516,139.365,398.669,137.779z M360.485,210.393
			c-20.48-7.817-41.647-13.254-63.298-16.289l7.152-42.909c0.694-4.167-2.121-8.108-6.287-8.802
			c-4.183-0.703-8.109,2.12-8.803,6.286l-7.282,43.695c-8.592-0.75-17.25-1.134-25.966-1.134c-36.074,0-71.19,6.441-104.49,19.155
			l-25.258-61.308c17.133-6.637,34.659-11.896,52.49-15.805l3.622,17.039c0.866,4.077,4.994,6.758,9.072,5.891
			c4.076-0.868,6.757-4.994,5.891-9.072l-3.573-16.811c17.939-3.131,36.161-4.91,54.597-5.292v16.74
			c0,4.168,3.481,7.649,7.649,7.649s7.649-3.481,7.649-7.649v-16.74c18.437,0.382,36.66,2.162,54.597,5.292l-3.573,16.811
			c-0.867,4.077,1.814,8.204,5.891,9.072c4.077,0.868,8.206-1.814,9.072-5.891l3.622-17.04c17.829,3.908,35.351,9.165,52.482,15.801
			L360.485,210.393z"/>
	</g>
</g>
<g>
	<g>
		<path d="M256,334.016c-34.583,0-62.719,28.136-62.719,62.719c0,31.609,23.446,50.481,62.719,50.481s62.719-18.872,62.719-50.481
			C318.719,362.152,290.584,334.016,256,334.016z M256,431.919c-17.71,0-47.422-4.571-47.422-35.184
			c0-26.149,21.272-47.422,47.422-47.422s47.422,21.273,47.422,47.422C303.422,427.348,273.711,431.919,256,431.919z"/>
	</g>
</g>
<g>
	<g>
		<path d="M225.406,272.827c-15.633,0-26.005,19.336-26.005,32.124c0,14.34,11.666,26.005,26.005,26.005
			s26.005-11.666,26.005-26.005C251.411,292.163,241.039,272.827,225.406,272.827z M225.406,315.659
			c-5.905,0-10.708-4.803-10.708-10.708c0-7.235,6.105-16.827,10.708-16.827s10.708,9.592,10.708,16.827
			C236.114,310.856,231.31,315.659,225.406,315.659z"/>
	</g>
</g>
<g>
	<g>
		<path d="M286.595,272.827c-15.633,0-26.005,19.336-26.005,32.124c0,14.34,11.666,26.005,26.005,26.005
			c14.34,0,26.005-11.666,26.005-26.005C312.601,292.163,302.228,272.827,286.595,272.827z M286.595,315.659
			c-5.905,0-10.708-4.803-10.708-10.708c0-7.235,6.105-16.827,10.708-16.827c4.604,0,10.708,9.592,10.708,16.827
			C297.303,310.856,292.5,315.659,286.595,315.659z"/>
	</g>
</g>
<g>
	<g>
		<path d="M335.547,309.541c-15.633,0-26.005,19.336-26.005,32.124c0,14.34,11.666,26.005,26.005,26.005
			c14.34,0,26.005-11.667,26.005-26.005C361.552,328.876,351.179,309.541,335.547,309.541z M335.547,352.373
			c-5.905,0-10.708-4.803-10.708-10.708c0-7.235,6.105-16.827,10.708-16.827c4.603,0,10.708,9.592,10.708,16.827
			C346.255,347.57,341.451,352.373,335.547,352.373z"/>
	</g>
</g>
<g>
	<g>
		<path d="M176.454,309.541c-15.633,0-26.005,19.336-26.005,32.124c0,14.339,11.666,26.005,26.005,26.005
			c14.34,0,26.005-11.666,26.005-26.005C202.46,328.876,192.087,309.541,176.454,309.541z M176.454,352.373
			c-5.905,0-10.708-4.803-10.708-10.708c0-7.235,6.105-16.827,10.708-16.827c4.603,0,10.708,9.592,10.708,16.827
			C187.162,347.57,182.359,352.373,176.454,352.373z"/>
	</g>
</g>
<g>
</g>
<g>
</g>
<g>
</g>
<g>
</g>
<g>
</g>
<g>
</g>
<g>
</g>
<g>
</g>
<g>
</g>
<g>
</g>
<g>
</g>
<g>
</g>
<g>
</g>
<g>
</g>
<g>
</g>
</svg>
